<svg width="5246" height="1574" viewBox="0 0 5246 1574" fill="none" xmlns="http://www.w3.org/2000/svg">
<path fill-rule="evenodd" clip-rule="evenodd" d="M0 1259.2L218.583 1101.8C437.167 944.4 874.333 629.6 1311.5 498.433C1748.67 367.267 2185.83 419.733 2623 472.2C3060.17 524.667 3497.33 577.133 3934.5 498.433C4371.67 419.733 4808.83 209.867 5027.42 104.933L5246 0V1574H5027.42C4808.83 1574 4371.67 1574 3934.5 1574C3497.33 1574 3060.17 1574 2623 1574C2185.83 1574 1748.67 1574 1311.5 1574C874.333 1574 437.167 1574 218.583 1574H0V1259.2Z" fill="#1D1534"/>
</svg>
