<svg width="14844" height="6180" viewBox="0 0 14844 6180" fill="none" xmlns="http://www.w3.org/2000/svg">
<rect x="1" y="2634.25" width="14842" height="3544.75" fill="#1D1534" stroke="#1D1534"/>
<path fill-rule="evenodd" clip-rule="evenodd" d="M1 2206.17L619.417 1930.4C1237.83 1654.63 2474.67 1103.08 3711.5 873.275C4948.33 643.466 6185.17 735.389 7422 827.313C8658.83 919.237 9895.67 1011.16 11132.5 873.275C12369.3 735.389 13606.2 367.695 14224.6 183.847L14843 0V2757.71H14224.6C13606.2 2757.71 12369.3 2757.71 11132.5 2757.71C9895.67 2757.71 8658.83 2757.71 7422 2757.71C6185.17 2757.71 4948.33 2757.71 3711.5 2757.71C2474.67 2757.71 1237.83 2757.71 619.417 2757.71H1V2206.17Z" fill="#1D1534"/>
</svg>
