<svg width="3443" height="1361" viewBox="0 0 3443 1361" fill="none" xmlns="http://www.w3.org/2000/svg">
<g clip-path="url(#clip0_2158_34)">
<path d="M3203.02 427.485C3403.87 446.664 3446.55 568.651 3442.77 627.246V1361H0.222521V627.246C-3.54727 568.651 39.127 446.664 239.98 427.485C491.048 403.515 484.262 319.616 522.714 251.698C561.166 183.779 622.236 115.861 837.113 169.797C1051.99 223.731 1262.34 241.71 1422.94 113.863C1551.41 11.5861 1675.77 0 1721.5 0C1767.23 0 1891.59 11.5861 2020.07 113.863C2180.65 241.71 2391.02 223.731 2605.89 169.797C2820.77 115.861 2881.83 183.779 2920.29 251.698C2958.74 319.616 2951.95 403.515 3203.02 427.485Z" fill="#1D1534"/>
</g>
<defs>
<clipPath id="clip0_2158_34">
<rect width="3443" height="1361" fill="white"/>
</clipPath>
</defs>
</svg>
