<svg width="3443" height="1014" viewBox="0 0 3443 1014" fill="none" xmlns="http://www.w3.org/2000/svg">
<g clip-path="url(#clip0_2158_34)">
<path d="M3203.02 318.494C3403.87 332.783 3446.55 423.668 3442.77 467.324V1014H0.222521V467.324C-3.54727 423.668 39.127 332.783 239.98 318.494C491.048 300.635 484.262 238.127 522.714 187.525C561.166 136.923 622.236 86.321 837.113 126.506C1051.99 166.688 1262.34 180.083 1422.94 84.8327C1551.41 8.63209 1675.77 0 1721.5 0C1767.23 0 1891.59 8.63209 2020.07 84.8327C2180.65 180.083 2391.02 166.688 2605.89 126.506C2820.77 86.321 2881.83 136.923 2920.29 187.525C2958.74 238.127 2951.95 300.635 3203.02 318.494Z" fill="#1D1534"/>
</g>
<defs>
<clipPath id="clip0_2158_34">
<rect width="3443" height="1014" fill="white"/>
</clipPath>
</defs>
</svg>
