<svg width="2102" height="877" viewBox="0 0 2102 877" fill="none" xmlns="http://www.w3.org/2000/svg">
<g clip-path="url(#clip0_2155_24)">
<path d="M1955.49 275.463C2078.11 287.821 2104.17 366.427 2101.86 404.185V877H0.135852V404.185C-2.16566 366.427 23.8876 287.821 146.511 275.463C299.791 260.017 295.648 205.954 319.123 162.189C342.599 118.423 379.883 74.6583 511.068 109.413C642.254 144.168 770.677 155.753 868.721 73.371C947.156 7.46582 1023.08 0 1051 0C1078.92 0 1154.84 7.46582 1233.28 73.371C1331.32 155.753 1459.75 144.168 1590.93 109.413C1722.12 74.6583 1759.4 118.423 1782.88 162.189C1806.35 205.954 1802.21 260.017 1955.49 275.463Z" fill="#1D1534"/>
</g>
<defs>
<clipPath id="clip0_2155_24">
<rect width="2102" height="877" fill="white"/>
</clipPath>
</defs>
</svg>
