<svg width="3309" height="1801" viewBox="0 0 3309 1801" fill="none" xmlns="http://www.w3.org/2000/svg">
<path d="M159.068 1570.45C-46.0438 1560.11 -89.6225 1494.32 -85.7728 1462.72L-85.7728 1067L3429.77 1067V1462.72C3433.62 1494.32 3390.04 1560.11 3184.93 1570.45C2928.54 1583.38 2935.47 1628.63 2896.2 1665.26C2856.94 1701.89 2794.57 1738.52 2575.14 1709.43C2355.71 1680.34 2140.89 1670.64 1976.9 1739.59C1845.7 1794.75 1718.7 1801 1672 1801C1625.3 1801 1498.3 1794.75 1367.1 1739.59C1203.11 1670.64 988.293 1680.34 768.86 1709.43C549.427 1738.52 487.062 1701.89 447.795 1665.26C408.528 1628.63 415.458 1583.38 159.068 1570.45Z" fill="#1D1534"/>
<path d="M3545.63 1089.11C3777.63 1178.86 3784.42 1356.43 3758.82 1434L3439.94 1408.73L58.6177 1408.73L-336 337.49C-319.365 257.521 -224.639 107.133 21.1823 145.329C328.459 193.074 396.6 209.304 466.816 130.252C537.032 51.1993 667.068 -78.1689 903.219 62.7759C1139.37 203.721 1304.21 221.236 1541.31 100.529C1730.99 3.96262 2100.4 -5.27657 2154.79 9.28834C2209.18 23.8533 2308.09 1.21659 2424.04 179.625C2568.98 402.634 2653.21 556.568 2928.24 552.507C3203.27 548.446 3251.43 659.198 3272.69 762.745C3293.94 866.293 3255.63 976.913 3545.63 1089.11Z" fill="#1D1534"/>
</svg>
