<svg width="1440" height="1024" viewBox="0 0 1440 1024" fill="none" xmlns="http://www.w3.org/2000/svg">
<g clip-path="url(#clip0_2072_36)">
<rect width="1440" height="1024" fill="#FFF8F4"/>
<path d="M927.815 92.151C851.534 3.84026 887.874 -71.2363 915.579 -97.7357L1309.85 -520.277L2763.75 836.36L2369.47 1258.9C2344.95 1288.37 2272.57 1329.81 2179.2 1259.82C2062.48 1172.33 2027.96 1215.07 1981.45 1232.36C1934.94 1249.64 1878.88 1258.01 1812.17 1147.58C1745.46 1037.14 1664.63 945.656 1539.83 943.428C1440 941.646 1382.31 898.17 1363 880.15C1343.69 862.13 1296.33 807.587 1287.65 708.111C1276.8 583.767 1179.95 509.458 1065.16 450.538C950.379 391.619 954.854 335.115 968.882 287.525C982.91 239.935 1023.17 202.539 927.815 92.151Z" fill="url(#paint0_linear_2072_36)"/>
<path d="M1033.42 -559.015C1003.14 -671.711 1068.51 -723.511 1104.99 -735.323L1643.79 -944.332L2362.96 909.603L1824.15 1118.61C1789.25 1134.48 1706.05 1140.32 1652.41 1036.68C1585.36 907.14 1535.69 930.614 1486.29 925.952C1436.9 921.289 1382.78 904.446 1370.73 775.985C1358.69 647.525 1325.7 529.995 1214.29 473.713C1125.17 428.687 1092.13 364.45 1082.58 339.824C1073.02 315.198 1054.1 245.486 1089.55 152.137C1133.86 35.4503 1078.96 -73.5851 1001.23 -176.562C923.494 -279.539 952.099 -328.473 985.428 -365.225C1018.76 -401.978 1071.27 -418.144 1033.42 -559.015Z" fill="url(#paint1_linear_2072_36)"/>
<path d="M1244.33 -53.9323C1197.17 -160.672 1253.85 -221.861 1288.09 -239.113L1788.59 -528.074L2782.85 1194.05L2637.09 1349.98C2605.04 1371.01 2523.7 1389.5 2454.84 1295.29C2368.77 1177.52 2323.27 1208.32 2273.74 1211.27C2224.22 1214.21 1878.86 1294.67 1781.87 1204.9C1687.18 1117.26 1699.74 977.559 1581.03 938.979C1486.07 908.115 1443.6 849.686 1430.39 826.812C1417.18 803.937 1387.82 737.94 1408.57 640.267C1434.51 518.176 1363.59 418.819 1271.02 328.944C1178.45 239.068 1199.23 186.335 1226.55 144.917C1253.86 103.499 1303.28 79.4919 1244.33 -53.9323Z" fill="url(#paint2_linear_2072_36)"/>
</g>
<defs>
<linearGradient id="paint0_linear_2072_36" x1="203.143" y1="-335.662" x2="1968.91" y2="1087.95" gradientUnits="userSpaceOnUse">
<stop stop-color="#F86F03"/>
<stop offset="0.505208" stop-color="#F86F03"/>
<stop offset="1" stop-color="#F7F651"/>
</linearGradient>
<linearGradient id="paint1_linear_2072_36" x1="1137.66" y1="-645.855" x2="1735.77" y2="1580.34" gradientUnits="userSpaceOnUse">
<stop stop-color="#ED374D"/>
<stop offset="0.505208" stop-color="#FA793F"/>
<stop offset="1" stop-color="#F7F651"/>
</linearGradient>
<linearGradient id="paint2_linear_2072_36" x1="1744.63" y1="-502.843" x2="1998.38" y2="1907.86" gradientUnits="userSpaceOnUse">
<stop stop-color="#ED374D"/>
<stop offset="0.505208" stop-color="#FA793F"/>
<stop offset="1" stop-color="#F7F651"/>
</linearGradient>
<clipPath id="clip0_2072_36">
<rect width="1440" height="1024" fill="white"/>
</clipPath>
</defs>
</svg>
