<svg width="1440" height="1024" viewBox="0 0 1440 1024" fill="none" xmlns="http://www.w3.org/2000/svg">
<g clip-path="url(#clip0_2072_36)">
<rect width="1440" height="1024" fill="#FFF8F4"/>
<path d="M1007.6 79.832C938.957 0.360232 971.66 -67.2019 996.592 -91.0491L1351.4 -471.298L2659.78 749.553L2304.97 1129.8C2282.9 1156.32 2217.76 1193.62 2133.73 1130.63C2028.7 1051.9 1997.63 1090.36 1955.78 1105.92C1913.93 1121.47 1863.48 1129 1803.44 1029.62C1743.41 930.235 1670.67 847.91 1558.37 845.905C1468.52 844.301 1416.61 805.177 1399.23 788.96C1381.85 772.743 1339.23 723.66 1331.42 634.141C1321.66 522.242 1234.5 455.37 1131.2 402.348C1027.91 349.326 1031.94 298.478 1044.56 255.651C1057.18 212.824 1093.41 179.172 1007.6 79.832Z" fill="url(#paint0_linear_2072_36)"/>
<path d="M1102.64 -506.159C1075.39 -607.576 1134.22 -654.19 1167.04 -664.821L1651.92 -852.91L2299.1 815.465L1814.23 1003.55C1782.82 1017.84 1707.94 1023.09 1659.67 929.827C1599.34 813.248 1554.63 834.374 1510.18 830.178C1465.73 825.982 1417.03 810.824 1406.19 695.221C1395.35 579.619 1365.66 473.853 1265.41 423.204C1185.2 382.684 1155.47 324.876 1146.87 302.715C1138.28 280.554 1121.25 217.82 1153.15 133.814C1193.02 28.8064 1143.62 -69.3157 1073.67 -161.986C1003.71 -254.656 1029.46 -298.692 1059.45 -331.766C1089.44 -364.84 1136.7 -379.387 1102.64 -506.159Z" fill="url(#paint1_linear_2072_36)"/>
<path d="M1292.44 -51.63C1250 -147.686 1301.01 -202.751 1331.82 -218.276L1782.22 -478.315L2676.97 1071.44L2545.8 1211.77C2516.95 1230.69 2443.76 1247.33 2381.79 1162.55C2304.33 1056.57 2263.39 1084.28 2218.82 1086.94C2174.25 1089.59 1863.46 1161.99 1776.18 1081.2C1690.96 1002.33 1702.26 876.62 1595.44 841.901C1509.98 814.126 1471.76 761.546 1459.88 740.96C1447.99 720.375 1421.57 660.984 1440.24 573.087C1463.59 463.216 1399.76 373.804 1316.45 292.924C1233.15 212.044 1251.85 164.589 1276.43 127.317C1301.02 90.0444 1345.49 68.4398 1292.44 -51.63Z" fill="url(#paint2_linear_2072_36)"/>
</g>
<defs>
<linearGradient id="paint0_linear_2072_36" x1="355.463" y1="-305.161" x2="1944.49" y2="975.962" gradientUnits="userSpaceOnUse">
<stop stop-color="#F86F03"/>
<stop offset="0.505208" stop-color="#F86F03"/>
<stop offset="1" stop-color="#F7F651"/>
</linearGradient>
<linearGradient id="paint1_linear_2072_36" x1="1196.44" y1="-584.307" x2="1734.69" y2="1419.07" gradientUnits="userSpaceOnUse">
<stop stop-color="#ED374D"/>
<stop offset="0.505208" stop-color="#FA793F"/>
<stop offset="1" stop-color="#F7F651"/>
</linearGradient>
<linearGradient id="paint2_linear_2072_36" x1="1742.66" y1="-455.609" x2="1971.02" y2="1713.8" gradientUnits="userSpaceOnUse">
<stop stop-color="#ED374D"/>
<stop offset="0.505208" stop-color="#FA793F"/>
<stop offset="1" stop-color="#F7F651"/>
</linearGradient>
<clipPath id="clip0_2072_36">
<rect width="1440" height="1024" fill="white"/>
</clipPath>
</defs>
</svg>
