<svg width="942" height="1024" viewBox="0 0 942 1024" fill="none" xmlns="http://www.w3.org/2000/svg">
<path d="M329.097 71.0378C243.084 -28.5414 284.061 -113.198 315.301 -143.078L759.886 -619.535L2399.3 910.207L1954.71 1386.66C1927.06 1419.89 1845.44 1466.63 1740.15 1387.7C1608.54 1289.05 1569.62 1337.24 1517.18 1356.73C1464.73 1376.22 1401.52 1385.66 1326.3 1261.13C1251.07 1136.6 1159.93 1033.45 1019.21 1030.94C906.634 1028.93 841.587 979.904 819.811 959.584C798.034 939.265 744.632 877.762 734.845 765.594C722.611 625.383 613.403 541.592 483.972 475.155C354.54 408.717 359.587 345.004 375.405 291.341C391.223 237.678 436.615 195.512 329.097 71.0378Z" fill="url(#paint0_linear_2040_36)"/>
<path d="M448.178 -663.216C414.033 -790.293 487.75 -848.702 528.877 -862.021L1136.43 -1097.7L1947.36 992.795L1339.81 1228.47C1300.46 1246.37 1206.63 1252.95 1146.15 1136.09C1070.55 990.018 1014.53 1016.49 958.836 1011.23C903.138 1005.97 842.112 986.98 828.533 842.129C814.955 697.277 777.75 564.751 652.127 501.287C551.63 450.516 514.378 378.082 503.606 350.314C492.835 322.546 471.496 243.939 511.467 138.678C561.431 7.10198 499.534 -115.846 411.88 -231.963C324.226 -348.08 356.48 -403.257 394.062 -444.699C431.645 -486.141 490.858 -504.37 448.178 -663.216Z" fill="url(#paint1_linear_2040_36)"/>
<path d="M684.002 -93.6856C630.822 -214.045 694.738 -283.042 733.343 -302.495L1297.7 -628.327L2418.84 1313.54L2254.48 1489.37C2218.33 1513.08 2126.62 1533.93 2048.97 1427.69C1951.92 1294.9 1900.61 1329.63 1844.76 1332.95C1788.92 1336.27 1399.5 1427 1290.13 1325.77C1183.36 1226.95 1197.52 1069.42 1063.67 1025.92C956.585 991.118 908.693 925.234 893.801 899.44C878.909 873.646 845.797 799.228 869.198 689.092C898.449 551.422 818.476 439.388 714.092 338.045C609.709 236.701 633.144 177.24 663.946 130.537C694.748 83.8341 750.476 56.7633 684.002 -93.6856Z" fill="url(#paint2_linear_2040_36)"/>
<defs>
<linearGradient id="paint0_linear_2040_36" x1="-488.041" y1="-411.364" x2="1503.03" y2="1193.9" gradientUnits="userSpaceOnUse">
<stop stop-color="#F86F03"/>
<stop offset="0.505208" stop-color="#F86F03"/>
<stop offset="1" stop-color="#F7F651"/>
</linearGradient>
<linearGradient id="paint1_linear_2040_36" x1="565.718" y1="-761.136" x2="1240.14" y2="1749.12" gradientUnits="userSpaceOnUse">
<stop stop-color="#ED374D"/>
<stop offset="0.505208" stop-color="#FA793F"/>
<stop offset="1" stop-color="#F7F651"/>
</linearGradient>
<linearGradient id="paint2_linear_2040_36" x1="1248.13" y1="-599.877" x2="1534.27" y2="2118.42" gradientUnits="userSpaceOnUse">
<stop stop-color="#ED374D"/>
<stop offset="0.505208" stop-color="#FA793F"/>
<stop offset="1" stop-color="#F7F651"/>
</linearGradient>
</defs>
</svg>
