<svg width="2104" height="1121" viewBox="0 0 2104 1121" fill="none" xmlns="http://www.w3.org/2000/svg">
<g clip-path="url(#clip0_2182_9)">
<rect width="2104" height="1121" fill="#FFF8F4"/>
<path d="M-277.228 -23.8672C-460.636 -37.2728 -503.801 -161.427 -502.458 -221.829L-533.955 -1132.03L2597.89 -1240.4L2629.39 -330.205C2634.9 -270.041 2600.42 -143.2 2418.38 -117.148C2190.83 -84.5827 2199.99 1.51776 2167.42 72.6015C2134.86 143.685 2081.72 215.481 1884.32 166.758C1686.91 118.035 1494.91 106.161 1353.36 242.743C1240.12 352.009 1127.4 367.843 1085.79 369.283C1044.19 370.722 930.642 362.718 810.123 261.542C659.473 135.071 468.746 160.189 275.183 222.441C81.6197 284.694 23.6434 216.743 -13.7557 148.08C-51.1548 79.4177 -47.9681 -7.10997 -277.228 -23.8672Z" fill="#FFF8F4"/>
<path d="M-277.228 -23.8672C-460.636 -37.2728 -503.801 -161.427 -502.458 -221.829L-533.955 -1132.03L2597.89 -1240.4L2629.39 -330.205C2634.9 -270.041 2600.42 -143.2 2418.38 -117.148C2190.83 -84.5827 2199.99 1.51776 2167.42 72.6015C2134.86 143.685 2081.72 215.481 1884.32 166.758C1686.91 118.035 1494.91 106.161 1353.36 242.743C1240.12 352.009 1127.4 367.843 1085.79 369.283C1044.19 370.722 930.642 362.718 810.123 261.542C659.473 135.071 468.746 160.189 275.183 222.441C81.6197 284.694 23.6434 216.743 -13.7557 148.08C-51.1548 79.4177 -47.9681 -7.10997 -277.228 -23.8672Z" fill="url(#paint0_linear_2182_9)"/>
<path d="M-885.16 -867.155C-1044.48 -958.993 -1029.35 -1089.56 -1001.88 -1143.37L-634.377 -1976.68L2232.89 -712.172L1865.39 121.134C1844.19 177.708 1757.98 276.929 1582.73 221.215C1363.66 151.572 1334.46 233.087 1274.22 282.933C1213.98 332.78 1134.91 374.318 978.342 244.591C821.777 114.863 654.044 20.6638 467.183 82.0906C317.695 131.232 209.301 96.4636 171.215 79.6672C133.129 62.8709 34.3595 6.27724 -30.1615 -137.245C-110.813 -316.648 -293.481 -376.98 -494.854 -405.108C-696.226 -433.236 -718.879 -519.638 -722.693 -597.732C-726.508 -675.826 -686.006 -752.356 -885.16 -867.155Z" fill="#FFF8F4"/>
<path d="M-885.16 -867.155C-1044.48 -958.993 -1029.35 -1089.56 -1001.88 -1143.37L-634.377 -1976.68L2232.89 -712.172L1865.39 121.134C1844.19 177.708 1757.98 276.929 1582.73 221.215C1363.66 151.572 1334.46 233.087 1274.22 282.933C1213.98 332.78 1134.91 374.318 978.342 244.591C821.777 114.863 654.044 20.6638 467.183 82.0906C317.695 131.232 209.301 96.4636 171.215 79.6672C133.129 62.8709 34.3595 6.27724 -30.1615 -137.245C-110.813 -316.648 -293.481 -376.98 -494.854 -405.108C-696.226 -433.236 -718.879 -519.638 -722.693 -597.732C-726.508 -675.826 -686.006 -752.356 -885.16 -867.155Z" fill="url(#paint1_linear_2182_9)"/>
<path d="M-87.4691 -539.653C-258.964 -606.045 -263.98 -737.41 -245.052 -794.794L-9.30068 -1674.63L3017.64 -863.564L3028.97 -527.334C3016.67 -468.174 2946.64 -356.918 2764.92 -385.168C2537.78 -420.481 2521.39 -335.448 2469.48 -276.965C2417.58 -218.482 2122.38 256.081 1914.26 264.134C1711.08 271.996 1569.41 102.318 1394.14 191.621C1253.92 263.063 1141.48 245.285 1101.28 234.511C1061.07 223.738 954.808 182.916 869.098 50.9368C761.96 -114.037 572.212 -145.717 368.905 -142.706C165.599 -139.694 129.999 -221.625 114.288 -298.226C98.576 -374.828 126.899 -456.664 -87.4691 -539.653Z" fill="#FFF8F4"/>
<path d="M-87.4691 -539.653C-258.964 -606.045 -263.98 -737.41 -245.052 -794.794L-9.30068 -1674.63L3017.64 -863.564L3028.97 -527.334C3016.67 -468.174 2946.64 -356.918 2764.92 -385.168C2537.78 -420.481 2521.39 -335.448 2469.48 -276.965C2417.58 -218.482 2122.38 256.081 1914.26 264.134C1711.08 271.996 1569.41 102.318 1394.14 191.621C1253.92 263.063 1141.48 245.285 1101.28 234.511C1061.07 223.738 954.808 182.916 869.098 50.9368C761.96 -114.037 572.212 -145.717 368.905 -142.706C165.599 -139.694 129.999 -221.625 114.288 -298.226C98.576 -374.828 126.899 -456.664 -87.4691 -539.653Z" fill="url(#paint2_linear_2182_9)"/>
<rect x="-30" y="132" width="2173" height="289" fill="#FFF8F4"/>
</g>
<defs>
<linearGradient id="paint0_linear_2182_9" x1="-1561.47" y1="306.929" x2="1992.53" y2="-74.3386" gradientUnits="userSpaceOnUse">
<stop stop-color="#F86F03"/>
<stop offset="0.505208" stop-color="#F86F03"/>
<stop offset="1" stop-color="#F7F651"/>
</linearGradient>
<linearGradient id="paint1_linear_2182_9" x1="-865.77" y1="-1080.08" x2="2281.42" y2="734.137" gradientUnits="userSpaceOnUse">
<stop stop-color="#ED374D"/>
<stop offset="0.505208" stop-color="#FA793F"/>
<stop offset="1" stop-color="#F7F651"/>
</linearGradient>
<linearGradient id="paint2_linear_2182_9" x1="-30.1724" y1="-1597.52" x2="2939.09" y2="805.916" gradientUnits="userSpaceOnUse">
<stop stop-color="#ED374D"/>
<stop offset="0.505208" stop-color="#FA793F"/>
<stop offset="1" stop-color="#F7F651"/>
</linearGradient>
<clipPath id="clip0_2182_9">
<rect width="2104" height="1121" fill="white"/>
</clipPath>
</defs>
</svg>
