<svg width="25" height="25" viewBox="0 0 25 25" fill="none" xmlns="http://www.w3.org/2000/svg">
<g clip-path="url(#clip0_11_14)">
<path d="M18.8256 17.117L23.1086 21.399L21.6936 22.814L17.4116 18.531C15.8183 19.8082 13.8366 20.5029 11.7946 20.5C6.82656 20.5 2.79456 16.468 2.79456 11.5C2.79456 6.532 6.82656 2.5 11.7946 2.5C16.7626 2.5 20.7946 6.532 20.7946 11.5C20.7975 13.542 20.1028 15.5237 18.8256 17.117ZM16.8196 16.375C18.0887 15.0699 18.7974 13.3204 18.7946 11.5C18.7946 7.632 15.6616 4.5 11.7946 4.5C7.92656 4.5 4.79456 7.632 4.79456 11.5C4.79456 15.367 7.92656 18.5 11.7946 18.5C13.615 18.5029 15.3644 17.7941 16.6696 16.525L16.8196 16.375Z" fill="white"/>
</g>
<defs>
<clipPath id="clip0_11_14">
<rect width="24" height="24" fill="white" transform="translate(0.794556 0.5)"/>
</clipPath>
</defs>
</svg>
