<svg width="1024" height="1440" viewBox="0 0 1024 1440" fill="none" xmlns="http://www.w3.org/2000/svg">
<g clip-path="url(#clip0_2072_36)">
<rect width="1440" height="1024" transform="matrix(0 -1 1 0 0 1440)" fill="#FFF8F4"/>
<path d="M447.981 421.003C363.768 483.742 298.739 446.254 276.751 419.667L45.4779 170.337C-22.1276 97.4524 -17.8484 -16.4369 55.0358 -84.0424L1103.09 -1056.19C1175.97 -1123.79 1289.86 -1119.51 1357.47 -1046.63L1588.74 -797.299C1613.6 -773.378 1646.1 -705.719 1577.22 -626.451C1491.12 -527.367 1527.25 -493.607 1539.74 -450.743C1552.24 -407.879 1556.12 -357.019 1452.66 -304.303C1349.21 -251.587 1261.86 -184.974 1251.76 -73.1052C1243.69 16.3902 1200.92 65.3472 1183.49 81.5121C1166.07 97.6771 1114.04 136.648 1024.19 137.985C911.879 139.657 838.898 221.766 778.568 320.972C718.238 420.177 667.812 412.494 626.007 396.816C584.201 381.138 553.248 342.58 447.981 421.003Z" fill="url(#paint0_linear_2072_36)"/>
<path d="M-129.635 283.975C-232.752 303.843 -275.005 241.804 -283.241 208.301L-383.058 -116.799C-412.236 -211.832 -358.85 -312.524 -263.817 -341.703L1102.72 -761.276C1197.76 -790.454 1298.45 -737.068 1327.63 -642.035L1427.44 -316.936C1439.43 -284.583 1439.27 -209.522 1342.77 -168.102C1222.14 -116.325 1239.99 -70.214 1232.6 -26.181C1225.21 17.852 1206.58 65.3359 1090.5 67.8115C974.418 70.287 866.787 92.2782 809.043 188.623C762.848 265.698 703.047 291.183 680.324 298.16C657.601 305.137 593.802 317.601 512.314 279.728C410.454 232.387 309.026 274.584 211.555 337.677C114.083 400.77 72.0173 371.921 41.1915 339.621C10.3656 307.321 -0.73779 259.139 -129.635 283.975Z" fill="url(#paint1_linear_2072_36)"/>
<path d="M337.393 127.431C238.528 162.837 187.283 107.991 174.019 76.1421L25.6526 -229.865C-17.7178 -319.317 19.6384 -426.99 109.09 -470.361L1437.35 -1114.36C1508.63 -1148.92 1594.13 -1132.82 1647.95 -1074.69L1673.19 -1047.44C1682.93 -1036.92 1692.06 -1025.44 1695.78 -1011.6C1705.49 -975.551 1700.07 -917.313 1626.94 -871.564C1515.65 -801.948 1540.34 -759.109 1539.77 -714.464C1539.21 -669.819 1589.02 -354.623 1502.15 -273.388C1417.34 -194.083 1292.77 -214.416 1250.44 -110.373C1216.58 -27.1386 1161.38 7.19342 1139.99 17.5636C1118.6 27.9337 1057.46 50.0092 971.139 25.0461C863.236 -6.15773 769.456 51.0562 682.782 128.315C596.107 205.574 550.124 183.499 514.721 156.294C479.317 129.089 460.975 83.1726 337.393 127.431Z" fill="url(#paint2_linear_2072_36)"/>
</g>
<defs>
<linearGradient id="paint0_linear_2072_36" x1="16.9802" y1="1043.69" x2="1409.31" y2="-448.852" gradientUnits="userSpaceOnUse">
<stop stop-color="#F86F03"/>
<stop offset="0.505208" stop-color="#F86F03"/>
<stop offset="1" stop-color="#F7F651"/>
</linearGradient>
<linearGradient id="paint1_linear_2072_36" x1="-200.818" y1="184.779" x2="1836.14" y2="-207.652" gradientUnits="userSpaceOnUse">
<stop stop-color="#ED374D"/>
<stop offset="0.505208" stop-color="#FA793F"/>
<stop offset="1" stop-color="#F7F651"/>
</linearGradient>
<linearGradient id="paint2_linear_2072_36" x1="-33.0813" y1="-350.739" x2="2147.15" y2="-422.12" gradientUnits="userSpaceOnUse">
<stop stop-color="#ED374D"/>
<stop offset="0.505208" stop-color="#FA793F"/>
<stop offset="1" stop-color="#F7F651"/>
</linearGradient>
<clipPath id="clip0_2072_36">
<rect width="1440" height="1024" fill="white" transform="matrix(0 -1 1 0 0 1440)"/>
</clipPath>
</defs>
</svg>
