<svg width="169" height="44" viewBox="0 0 169 44" fill="none" xmlns="http://www.w3.org/2000/svg">
<path d="M39.3196 16.688L35.0716 16.976L34.9756 0.967999C35.8556 0.615999 36.7756 0.391999 37.7356 0.295999C38.6956 0.184 39.5516 0.176 40.3036 0.271999C41.0716 0.351999 41.8236 0.495999 42.5596 0.704C43.3116 0.895999 43.8956 1.088 44.3116 1.28C44.7436 1.456 45.1036 1.632 45.3916 1.808C45.4236 1.824 45.4716 1.848 45.5356 1.88C45.8556 2.072 46.1036 2.232 46.2796 2.36C46.4556 2.488 46.6716 2.712 46.9276 3.032C47.1996 3.336 47.3676 3.672 47.4316 4.04C47.4956 4.392 47.4876 4.872 47.4076 5.48C47.3276 6.072 47.1276 6.744 46.8076 7.496C46.4716 8.264 45.9756 8.904 45.3196 9.416C44.6796 9.912 44.0156 10.248 43.3276 10.424C42.6396 10.584 41.9756 10.696 41.3356 10.76C40.6956 10.824 40.1676 10.84 39.7516 10.808L39.1276 10.736L39.3196 16.688ZM79.9887 3.728H83.0367V3.896C82.8927 7.56 82.7487 10.288 82.6047 12.08C82.4927 13.488 81.9247 14.648 80.9007 15.56C79.8447 16.52 78.5247 17 76.9407 17C75.5167 17 74.4767 16.552 73.8207 15.656C73.4207 15.112 73.0527 14.144 72.7167 12.752L72.6927 12.656C72.3567 11.248 72.1407 8.328 72.0447 3.896V3.728H75.1647L75.5967 7.904C75.5967 8.624 75.6527 9.264 75.7647 9.824C75.8767 10.368 76.0047 10.784 76.1487 11.072C76.2927 11.344 76.4607 11.576 76.6527 11.768C76.8447 11.96 76.9887 12.08 77.0847 12.128C77.1807 12.176 77.2607 12.208 77.3247 12.224C77.5807 12.208 77.8127 12.152 78.0207 12.056C78.2447 11.944 78.4207 11.824 78.5487 11.696C78.6767 11.552 78.8047 11.336 78.9327 11.048C79.0607 10.744 79.1567 10.496 79.2207 10.304C79.2847 10.096 79.3727 9.784 79.4847 9.368C79.5487 9.144 79.5967 8.976 79.6287 8.864C79.9807 7.664 80.1007 6.008 79.9887 3.896V3.728ZM133.364 12.2C133.508 12.408 133.588 12.672 133.604 12.992C133.62 13.312 133.564 13.648 133.436 14C133.324 14.352 133.124 14.704 132.836 15.056C132.564 15.408 132.228 15.728 131.828 16.016C131.428 16.304 130.924 16.536 130.316 16.712C129.708 16.888 129.044 16.976 128.324 16.976C127.492 16.976 126.692 16.88 125.924 16.688C125.172 16.48 124.548 16.232 124.052 15.944C123.572 15.656 123.148 15.376 122.78 15.104C122.412 14.816 122.148 14.568 121.988 14.36L121.748 14.072L126.14 10.904C124.204 9.432 122.964 8.36 122.42 7.688C122.292 7.544 122.212 7.368 122.18 7.16C122.148 6.936 122.164 6.704 122.228 6.464C122.308 6.208 122.428 5.952 122.588 5.696C122.764 5.424 122.996 5.168 123.284 4.928C123.588 4.688 123.932 4.48 124.316 4.304C124.7 4.112 125.172 3.96 125.732 3.848C126.292 3.736 126.892 3.68 127.532 3.68C128.172 3.68 128.764 3.72 129.308 3.8C129.868 3.864 130.34 3.96 130.724 4.088C131.108 4.216 131.452 4.352 131.756 4.496C132.06 4.64 132.3 4.784 132.476 4.928C132.668 5.072 132.82 5.208 132.932 5.336C133.06 5.448 133.148 5.544 133.196 5.624L133.268 5.744L128.06 9.272C128.396 9.4 128.812 9.568 129.308 9.776C129.82 9.984 130.556 10.352 131.516 10.88C132.492 11.392 133.108 11.832 133.364 12.2ZM30.9532 26.728C31.9292 26.616 32.8252 26.704 33.6412 26.992C34.4572 27.28 35.1212 27.696 35.6332 28.24C36.1612 28.784 36.5692 29.432 36.8572 30.184C37.1452 30.936 37.2892 31.712 37.2892 32.512C37.2892 33.312 37.1452 34.128 36.8572 34.96C36.5692 35.776 36.1372 36.528 35.5612 37.216C35.1132 37.744 34.6732 38.192 34.2412 38.56C33.8252 38.928 33.4412 39.224 33.0892 39.448C32.7532 39.656 32.3932 39.8 32.0092 39.88C31.6252 39.96 31.2972 40.008 31.0252 40.024C30.7692 40.04 30.4492 40 30.0652 39.904C29.6972 39.792 29.4092 39.696 29.2012 39.616C28.9932 39.536 28.6972 39.408 28.3132 39.232C28.0732 39.12 27.8892 39.04 27.7612 38.992C26.5932 38.496 25.8012 37.512 25.3852 36.04C24.9692 34.552 25.0252 32.864 25.5532 30.976C25.7612 30.272 26.0812 29.648 26.5132 29.104C26.9612 28.544 27.4332 28.128 27.9292 27.856C28.4252 27.568 28.8972 27.336 29.3452 27.16C29.8092 26.968 30.1932 26.848 30.4972 26.8L30.9532 26.728ZM58.3827 26.68C59.3587 26.68 60.1347 27.048 60.7107 27.784C61.2867 28.52 61.7107 29.752 61.9827 31.48L58.3347 32.896L54.9507 34.192V39.976H51.4227L51.1347 32.872L50.1267 26.68H54.9507V28.264C56.0227 27.208 57.1667 26.68 58.3827 26.68ZM113.564 23.176H118.748L118.22 39.976C118.124 39.976 117.988 39.984 117.812 40C117.652 40.016 117.3 40.016 116.756 40C116.228 39.984 115.708 39.952 115.196 39.904C114.684 39.856 114.084 39.76 113.396 39.616C112.708 39.456 112.068 39.264 111.476 39.04C110.884 38.8 110.292 38.472 109.7 38.056C109.108 37.64 108.62 37.168 108.236 36.64C108.14 36.496 108.028 36.304 107.9 36.064C107.772 35.808 107.588 35.304 107.348 34.552C107.108 33.8 106.956 33.064 106.892 32.344C106.86 31.752 106.948 31.2 107.156 30.688C107.364 30.16 107.668 29.712 108.068 29.344C108.468 28.96 108.9 28.632 109.364 28.36C109.828 28.088 110.332 27.864 110.876 27.688C111.116 27.608 111.42 27.496 111.788 27.352C112.172 27.192 112.492 27.08 112.748 27.016C113.02 26.936 113.372 26.872 113.804 26.824L113.564 23.176Z" fill="#FF9408"/>
<path d="M58.976 6.296C59.008 6.344 59.032 6.416 59.048 6.512C59.08 6.608 59.128 6.808 59.192 7.112C59.256 7.4 59.304 7.696 59.336 8C59.368 8.304 59.384 8.672 59.384 9.104C59.384 9.536 59.352 9.944 59.288 10.328H52.808V17C52.696 16.968 52.536 16.92 52.328 16.856C52.12 16.776 51.744 16.616 51.2 16.376C50.672 16.12 50.184 15.856 49.736 15.584C49.304 15.312 48.88 14.968 48.464 14.552C48.048 14.12 47.776 13.688 47.648 13.256C47.456 12.68 47.392 11.984 47.456 11.168C47.536 10.336 47.68 9.528 47.888 8.744C48.096 7.96 48.392 7.232 48.776 6.56C49.16 5.888 49.568 5.424 50 5.168C50.352 4.96 50.736 4.768 51.152 4.592C51.584 4.4 52.096 4.208 52.688 4.016C53.28 3.808 53.864 3.696 54.44 3.68C55.032 3.648 55.616 3.688 56.192 3.8C56.768 3.896 57.296 4.16 57.776 4.592C58.272 5.024 58.672 5.592 58.976 6.296ZM108.424 17L103.6 16.976C103.6 16.976 103.76 16.032 104.08 14.144C104.64 9.888 104.312 7.776 103.096 7.808C102.552 7.824 101.824 8.304 100.912 9.248V16.976H97.3837L97.0957 9.872L96.0877 3.68H100.912V5.264C101.984 4.208 103.128 3.68 104.344 3.68C105.368 3.68 106.168 4.088 106.744 4.904C107.32 5.72 107.744 7.088 108.016 9.008C108.288 10.928 108.424 13.592 108.424 17ZM4.49147 39.688L0.243469 39.976L0.147469 23.968C1.02747 23.616 1.94747 23.392 2.90747 23.296C3.86747 23.184 4.72347 23.176 5.47547 23.272C6.24347 23.352 6.99547 23.496 7.73147 23.704C8.48347 23.896 9.06747 24.088 9.48347 24.28C9.91547 24.456 10.2755 24.632 10.5635 24.808C10.5955 24.824 10.6435 24.848 10.7075 24.88C11.0275 25.072 11.2755 25.232 11.4515 25.36C11.6275 25.488 11.8435 25.712 12.0995 26.032C12.3715 26.336 12.5395 26.672 12.6035 27.04C12.6675 27.392 12.6595 27.872 12.5795 28.48C12.4995 29.072 12.2995 29.744 11.9795 30.496C11.6435 31.264 11.1475 31.904 10.4915 32.416C9.85147 32.912 9.18747 33.248 8.49947 33.424C7.81147 33.584 7.14747 33.696 6.50747 33.76C5.86747 33.824 5.33947 33.84 4.92347 33.808L4.29947 33.736L4.49147 39.688ZM62.7245 30.352C62.9645 29.984 63.1565 29.696 63.3005 29.488C63.4445 29.28 63.6685 29.024 63.9725 28.72C64.2765 28.416 64.5885 28.184 64.9085 28.024C65.2285 27.864 65.6605 27.688 66.2045 27.496C66.7485 27.288 67.3485 27.136 68.0045 27.04C68.6765 26.944 69.4845 26.864 70.4285 26.8C71.3885 26.72 72.4685 26.68 73.6685 26.68L73.4045 39.976H70.4525L70.1165 39.16C70.0365 39.224 69.9005 39.304 69.7085 39.4C69.5325 39.48 69.1165 39.6 68.4605 39.76C67.8045 39.904 67.1005 39.976 66.3485 39.976C65.8685 39.976 65.3645 39.728 64.8365 39.232C64.3245 38.72 63.8765 38.08 63.4925 37.312C63.1245 36.528 62.8205 35.704 62.5805 34.84C62.3405 33.976 62.2285 33.136 62.2445 32.32C62.2605 31.488 62.4205 30.832 62.7245 30.352ZM125.43 26.728C126.406 26.616 127.302 26.704 128.118 26.992C128.934 27.28 129.598 27.696 130.11 28.24C130.638 28.784 131.046 29.432 131.334 30.184C131.622 30.936 131.766 31.712 131.766 32.512C131.766 33.312 131.622 34.128 131.334 34.96C131.046 35.776 130.614 36.528 130.038 37.216C129.59 37.744 129.15 38.192 128.718 38.56C128.302 38.928 127.918 39.224 127.566 39.448C127.23 39.656 126.87 39.8 126.486 39.88C126.102 39.96 125.774 40.008 125.502 40.024C125.246 40.04 124.926 40 124.542 39.904C124.174 39.792 123.886 39.696 123.678 39.616C123.47 39.536 123.174 39.408 122.79 39.232C122.55 39.12 122.366 39.04 122.238 38.992C121.07 38.496 120.278 37.512 119.862 36.04C119.446 34.552 119.502 32.864 120.03 30.976C120.238 30.272 120.558 29.648 120.99 29.104C121.438 28.544 121.91 28.128 122.406 27.856C122.902 27.568 123.374 27.336 123.822 27.16C124.286 26.968 124.67 26.848 124.974 26.8L125.43 26.728ZM168.192 35.2C168.336 35.408 168.416 35.672 168.432 35.992C168.448 36.312 168.392 36.648 168.264 37C168.152 37.352 167.952 37.704 167.664 38.056C167.392 38.408 167.056 38.728 166.656 39.016C166.256 39.304 165.752 39.536 165.144 39.712C164.536 39.888 163.872 39.976 163.152 39.976C162.32 39.976 161.52 39.88 160.752 39.688C160 39.48 159.376 39.232 158.88 38.944C158.4 38.656 157.976 38.376 157.608 38.104C157.24 37.816 156.976 37.568 156.816 37.36L156.576 37.072L160.968 33.904C159.032 32.432 157.792 31.36 157.248 30.688C157.12 30.544 157.04 30.368 157.008 30.16C156.976 29.936 156.992 29.704 157.056 29.464C157.136 29.208 157.256 28.952 157.416 28.696C157.592 28.424 157.824 28.168 158.112 27.928C158.416 27.688 158.76 27.48 159.144 27.304C159.528 27.112 160 26.96 160.56 26.848C161.12 26.736 161.72 26.68 162.36 26.68C163 26.68 163.592 26.72 164.136 26.8C164.696 26.864 165.168 26.96 165.552 27.088C165.936 27.216 166.28 27.352 166.584 27.496C166.888 27.64 167.128 27.784 167.304 27.928C167.496 28.072 167.648 28.208 167.76 28.336C167.888 28.448 167.976 28.544 168.024 28.624L168.096 28.744L162.888 32.272C163.224 32.4 163.64 32.568 164.136 32.776C164.648 32.984 165.384 33.352 166.344 33.88C167.32 34.392 167.936 34.832 168.192 35.2Z" fill="#01B7CD"/>
<path d="M70.607 3.704L71.087 20.504H67.799L67.031 16.856C65.991 16.744 64.839 16.464 63.575 16.016C62.455 15.616 61.519 15.024 60.767 14.24C60.031 13.44 59.695 12.472 59.759 11.336C59.791 11 59.831 10.664 59.879 10.328C59.943 9.992 60.015 9.688 60.095 9.416C60.175 9.144 60.255 8.88 60.335 8.624C60.431 8.368 60.519 8.144 60.599 7.952C60.679 7.76 60.751 7.6 60.815 7.472C60.879 7.328 60.935 7.216 60.983 7.136L61.031 7.04C61.559 6.304 62.247 5.688 63.095 5.192C63.943 4.696 64.783 4.352 65.615 4.16C66.463 3.968 67.271 3.832 68.039 3.752C68.807 3.672 69.423 3.64 69.887 3.656L70.607 3.704ZM115.07 3.728C116.046 3.616 116.942 3.704 117.758 3.992C118.574 4.28 119.238 4.696 119.75 5.24C120.278 5.784 120.686 6.432 120.974 7.184C121.262 7.936 121.406 8.712 121.406 9.512C121.406 10.312 121.262 11.128 120.974 11.96C120.686 12.776 120.254 13.528 119.678 14.216C119.23 14.744 118.79 15.192 118.358 15.56C117.942 15.928 117.558 16.224 117.206 16.448C116.87 16.656 116.51 16.8 116.126 16.88C115.742 16.96 115.414 17.008 115.142 17.024C114.886 17.04 114.566 17 114.182 16.904C113.814 16.792 113.526 16.696 113.318 16.616C113.11 16.536 112.814 16.408 112.43 16.232C112.19 16.12 112.006 16.04 111.878 15.992C110.71 15.496 109.918 14.512 109.502 13.04C109.086 11.552 109.142 9.864 109.67 7.976C109.878 7.272 110.198 6.648 110.63 6.104C111.078 5.544 111.55 5.128 112.046 4.856C112.542 4.568 113.014 4.336 113.462 4.16C113.926 3.968 114.31 3.848 114.614 3.8L115.07 3.728ZM38.3032 30.064C38.5432 29.728 38.7352 29.464 38.8792 29.272C39.0232 29.08 39.2472 28.848 39.5512 28.576C39.8552 28.288 40.1672 28.072 40.4872 27.928C40.8072 27.784 41.2392 27.624 41.7832 27.448C42.3272 27.256 42.9272 27.112 43.5832 27.016C44.2552 26.92 45.0632 26.84 46.0072 26.776C46.9672 26.712 48.0472 26.68 49.2472 26.68L49.0072 38.2C49.0072 38.264 48.9992 38.36 48.9832 38.488C48.9832 38.6 48.9512 38.832 48.8872 39.184C48.8232 39.52 48.7352 39.84 48.6232 40.144C48.5112 40.464 48.3352 40.824 48.0952 41.224C47.8552 41.624 47.5752 41.968 47.2552 42.256C46.9352 42.544 46.5112 42.8 45.9832 43.024C45.4712 43.248 44.9032 43.384 44.2792 43.432C44.0232 43.448 43.7672 43.456 43.5112 43.456C43.2552 43.472 43.0232 43.48 42.8152 43.48C42.6072 43.48 42.4072 43.48 42.2152 43.48C42.0232 43.48 41.8552 43.472 41.7112 43.456C41.5832 43.456 41.4632 43.448 41.3512 43.432C41.2552 43.432 41.1832 43.432 41.1352 43.432H41.0392L38.4472 39.976H42.7192C42.7672 39.992 42.8312 40 42.9112 40C43.0072 40.016 43.1752 40.008 43.4152 39.976C43.6552 39.944 43.8712 39.888 44.0632 39.808C44.2712 39.712 44.4872 39.544 44.7112 39.304C44.9512 39.048 45.1272 38.736 45.2392 38.368C44.3272 38.72 43.2232 38.896 41.9272 38.896C41.4472 38.896 40.9432 38.672 40.4152 38.224C39.9032 37.76 39.4552 37.168 39.0712 36.448C38.7032 35.728 38.3992 34.976 38.1592 34.192C37.9192 33.392 37.8072 32.616 37.8232 31.864C37.8392 31.112 37.9992 30.512 38.3032 30.064ZM95.0682 30.352C95.3082 29.984 95.5002 29.696 95.6442 29.488C95.7882 29.28 96.0122 29.024 96.3162 28.72C96.6202 28.416 96.9322 28.184 97.2522 28.024C97.5722 27.864 98.0042 27.688 98.5482 27.496C99.0922 27.288 99.6922 27.136 100.348 27.04C101.02 26.944 101.828 26.864 102.772 26.8C103.732 26.72 104.812 26.68 106.012 26.68L105.748 39.976H102.796L102.46 39.16C102.38 39.224 102.244 39.304 102.052 39.4C101.876 39.48 101.46 39.6 100.804 39.76C100.148 39.904 99.4442 39.976 98.6922 39.976C98.2122 39.976 97.7082 39.728 97.1802 39.232C96.6682 38.72 96.2202 38.08 95.8362 37.312C95.4682 36.528 95.1642 35.704 94.9242 34.84C94.6842 33.976 94.5722 33.136 94.5882 32.32C94.6042 31.488 94.7642 30.832 95.0682 30.352ZM140.508 26.68C141.484 26.68 142.26 27.048 142.836 27.784C143.412 28.52 143.836 29.752 144.108 31.48L140.46 32.896L137.076 34.192V39.976H133.548L133.26 32.872L132.252 26.68H137.076V28.264C138.148 27.208 139.292 26.68 140.508 26.68Z" fill="#B261A3"/>
<path d="M95.2807 6.296C95.3127 6.344 95.3367 6.416 95.3527 6.512C95.3847 6.608 95.4327 6.808 95.4967 7.112C95.5607 7.4 95.6087 7.696 95.6407 8C95.6727 8.304 95.6887 8.672 95.6887 9.104C95.6887 9.536 95.6567 9.944 95.5927 10.328H89.1127V17C89.0007 16.968 88.8407 16.92 88.6327 16.856C88.4247 16.776 88.0487 16.616 87.5047 16.376C86.9767 16.12 86.4887 15.856 86.0407 15.584C85.6087 15.312 85.1847 14.968 84.7687 14.552C84.3527 14.12 84.0807 13.688 83.9527 13.256C83.7607 12.68 83.6967 11.984 83.7607 11.168C83.8407 10.336 83.9847 9.528 84.1927 8.744C84.4007 7.96 84.6967 7.232 85.0807 6.56C85.4647 5.888 85.8727 5.424 86.3047 5.168C86.6567 4.96 87.0407 4.768 87.4567 4.592C87.8887 4.4 88.4007 4.208 88.9927 4.016C89.5847 3.808 90.1687 3.696 90.7447 3.68C91.3367 3.648 91.9207 3.688 92.4967 3.8C93.0727 3.896 93.6007 4.16 94.0807 4.592C94.5767 5.024 94.9767 5.592 95.2807 6.296ZM21.1874 26.68C22.1634 26.68 22.9394 27.048 23.5154 27.784C24.0914 28.52 24.5154 29.752 24.7874 31.48L21.1394 32.896L17.7554 34.192V39.976H14.2274L13.9394 32.872L12.9314 26.68H17.7554V28.264C18.8274 27.208 19.9714 26.68 21.1874 26.68ZM93.844 40L89.02 39.976C89.02 39.976 89.18 39.04 89.5 37.168C90.06 32.912 89.732 30.792 88.516 30.808C88.004 30.808 87.34 31.224 86.524 32.056C86.78 33.96 86.908 36.608 86.908 40L82.084 39.976C82.084 39.976 82.244 39.032 82.564 37.144C83.124 32.888 82.796 30.776 81.58 30.808C81.036 30.824 80.308 31.304 79.396 32.248V39.976H75.868L75.58 32.872L74.572 26.68H79.396V28.264C80.468 27.208 81.612 26.68 82.828 26.68C84.172 26.68 85.148 27.416 85.756 28.888C86.972 27.416 88.3 26.68 89.74 26.68C90.78 26.68 91.588 27.088 92.164 27.904C92.74 28.72 93.164 30.088 93.436 32.008C93.708 33.928 93.844 36.592 93.844 40ZM155.913 29.296C155.945 29.344 155.969 29.416 155.985 29.512C156.017 29.608 156.065 29.808 156.129 30.112C156.193 30.4 156.241 30.696 156.273 31C156.305 31.304 156.321 31.672 156.321 32.104C156.321 32.536 156.289 32.944 156.225 33.328H149.745V40C149.633 39.968 149.473 39.92 149.265 39.856C149.057 39.776 148.681 39.616 148.137 39.376C147.609 39.12 147.121 38.856 146.673 38.584C146.241 38.312 145.817 37.968 145.401 37.552C144.985 37.12 144.713 36.688 144.585 36.256C144.393 35.68 144.329 34.984 144.393 34.168C144.473 33.336 144.617 32.528 144.825 31.744C145.033 30.96 145.329 30.232 145.713 29.56C146.097 28.888 146.505 28.424 146.937 28.168C147.289 27.96 147.673 27.768 148.089 27.592C148.521 27.4 149.033 27.208 149.625 27.016C150.217 26.808 150.801 26.696 151.377 26.68C151.969 26.648 152.553 26.688 153.129 26.8C153.705 26.896 154.233 27.16 154.713 27.592C155.209 28.024 155.609 28.592 155.913 29.296Z" fill="#FF484A"/>
</svg>
