<svg width="141" height="37" viewBox="0 0 141 37" fill="none" xmlns="http://www.w3.org/2000/svg">
<path d="M32.7663 14.74L29.2263 14.98L29.1463 1.64C29.8797 1.34667 30.6463 1.16 31.4463 1.08C32.2463 0.986666 32.9597 0.98 33.5863 1.06C34.2263 1.12667 34.853 1.24667 35.4663 1.42C36.093 1.58 36.5797 1.74 36.9263 1.9C37.2863 2.04667 37.5863 2.19333 37.8263 2.34C37.853 2.35333 37.893 2.37333 37.9463 2.4C38.213 2.56 38.4197 2.69333 38.5663 2.8C38.713 2.90667 38.893 3.09333 39.1063 3.36C39.333 3.61333 39.473 3.89333 39.5263 4.2C39.5797 4.49333 39.573 4.89333 39.5063 5.4C39.4397 5.89333 39.273 6.45333 39.0063 7.08C38.7263 7.72 38.313 8.25333 37.7663 8.68C37.233 9.09333 36.6797 9.37333 36.1063 9.52C35.533 9.65333 34.9797 9.74667 34.4463 9.8C33.913 9.85333 33.473 9.86667 33.1263 9.84L32.6063 9.78L32.7663 14.74ZM49.1466 6.08C49.1733 6.12 49.1933 6.18 49.2066 6.26C49.2333 6.34 49.2733 6.50667 49.3266 6.76C49.38 7 49.42 7.24667 49.4466 7.5C49.4733 7.75333 49.4866 8.06 49.4866 8.42C49.4866 8.78 49.46 9.12 49.4066 9.44H44.0066V15C43.9133 14.9733 43.78 14.9333 43.6066 14.88C43.4333 14.8133 43.12 14.68 42.6666 14.48C42.2266 14.2667 41.82 14.0467 41.4466 13.82C41.0866 13.5933 40.7333 13.3067 40.3866 12.96C40.04 12.6 39.8133 12.24 39.7066 11.88C39.5466 11.4 39.4933 10.82 39.5466 10.14C39.6133 9.44667 39.7333 8.77333 39.9066 8.12C40.08 7.46667 40.3266 6.86 40.6466 6.3C40.9666 5.74 41.3066 5.35333 41.6666 5.14C41.96 4.96667 42.28 4.80667 42.6266 4.66C42.9866 4.5 43.4133 4.34 43.9066 4.18C44.4 4.00667 44.8866 3.91333 45.3666 3.9C45.86 3.87333 46.3466 3.90667 46.8266 4C47.3066 4.08 47.7466 4.3 48.1466 4.66C48.56 5.02 48.8933 5.49333 49.1466 6.08ZM58.8391 3.92L59.2391 17.92H56.4991L55.8591 14.88C54.9925 14.7867 54.0325 14.5533 52.9791 14.18C52.0458 13.8467 51.2658 13.3533 50.6391 12.7C50.0258 12.0333 49.7458 11.2267 49.7991 10.28C49.8258 10 49.8591 9.72 49.8991 9.44C49.9525 9.16 50.0125 8.90667 50.0791 8.68C50.1458 8.45333 50.2125 8.23333 50.2791 8.02C50.3591 7.80667 50.4325 7.62 50.4991 7.46C50.5658 7.3 50.6258 7.16667 50.6791 7.06C50.7325 6.94 50.7791 6.84667 50.8191 6.78L50.8591 6.7C51.2991 6.08667 51.8725 5.57333 52.5791 5.16C53.2858 4.74667 53.9858 4.46 54.6791 4.3C55.3858 4.14 56.0591 4.02667 56.6991 3.96C57.3391 3.89333 57.8525 3.86667 58.2391 3.88L58.8391 3.92ZM66.6573 3.94H69.1973V4.08C69.0773 7.13333 68.9573 9.40667 68.8373 10.9C68.7439 12.0733 68.2706 13.04 67.4173 13.8C66.5373 14.6 65.4373 15 64.1173 15C62.9306 15 62.0639 14.6267 61.5173 13.88C61.1839 13.4267 60.8773 12.62 60.5973 11.46L60.5773 11.38C60.2973 10.2067 60.1173 7.77333 60.0373 4.08V3.94H62.6373L62.9973 7.42C62.9973 8.02 63.0439 8.55333 63.1373 9.02C63.2306 9.47333 63.3373 9.82 63.4573 10.06C63.5773 10.2867 63.7173 10.48 63.8773 10.64C64.0373 10.8 64.1573 10.9 64.2373 10.94C64.3173 10.98 64.3839 11.0067 64.4373 11.02C64.6506 11.0067 64.8439 10.96 65.0173 10.88C65.2039 10.7867 65.3506 10.6867 65.4573 10.58C65.5639 10.46 65.6706 10.28 65.7773 10.04C65.8839 9.78667 65.9639 9.58 66.0173 9.42C66.0706 9.24667 66.1439 8.98667 66.2373 8.64C66.2906 8.45333 66.3306 8.31333 66.3573 8.22C66.6506 7.22 66.7506 5.84 66.6573 4.08V3.94ZM79.4005 6.08C79.4272 6.12 79.4472 6.18 79.4605 6.26C79.4872 6.34 79.5272 6.50667 79.5805 6.76C79.6339 7 79.6739 7.24667 79.7005 7.5C79.7272 7.75333 79.7405 8.06 79.7405 8.42C79.7405 8.78 79.7139 9.12 79.6605 9.44H74.2605V15C74.1672 14.9733 74.0339 14.9333 73.8605 14.88C73.6872 14.8133 73.3739 14.68 72.9205 14.48C72.4805 14.2667 72.0739 14.0467 71.7005 13.82C71.3405 13.5933 70.9872 13.3067 70.6405 12.96C70.2939 12.6 70.0672 12.24 69.9605 11.88C69.8005 11.4 69.7472 10.82 69.8005 10.14C69.8672 9.44667 69.9872 8.77333 70.1605 8.12C70.3339 7.46667 70.5805 6.86 70.9005 6.3C71.2205 5.74 71.5605 5.35333 71.9205 5.14C72.2139 4.96667 72.5339 4.80667 72.8805 4.66C73.2405 4.5 73.6672 4.34 74.1605 4.18C74.6539 4.00667 75.1405 3.91333 75.6205 3.9C76.1139 3.87333 76.6005 3.90667 77.0805 4C77.5605 4.08 78.0005 4.3 78.4005 4.66C78.8139 5.02 79.1472 5.49333 79.4005 6.08ZM90.353 15L86.333 14.98C86.333 14.98 86.4664 14.1933 86.733 12.62C87.1997 9.07333 86.9264 7.31333 85.913 7.34C85.4597 7.35333 84.853 7.75333 84.093 8.54V14.98H81.153L80.913 9.06L80.073 3.9H84.093V5.22C84.9864 4.34 85.9397 3.9 86.953 3.9C87.8064 3.9 88.473 4.24 88.953 4.92C89.433 5.6 89.7864 6.74 90.013 8.34C90.2397 9.94 90.353 12.16 90.353 15ZM95.892 3.94C96.7053 3.84667 97.452 3.92 98.132 4.16C98.812 4.4 99.3653 4.74667 99.792 5.2C100.232 5.65333 100.572 6.19333 100.812 6.82C101.052 7.44667 101.172 8.09333 101.172 8.76C101.172 9.42667 101.052 10.1067 100.812 10.8C100.572 11.48 100.212 12.1067 99.732 12.68C99.3586 13.12 98.992 13.4933 98.632 13.8C98.2853 14.1067 97.9653 14.3533 97.672 14.54C97.392 14.7133 97.092 14.8333 96.772 14.9C96.452 14.9667 96.1786 15.0067 95.952 15.02C95.7386 15.0333 95.472 15 95.152 14.92C94.8453 14.8267 94.6053 14.7467 94.432 14.68C94.2586 14.6133 94.012 14.5067 93.692 14.36C93.492 14.2667 93.3386 14.2 93.232 14.16C92.2586 13.7467 91.5986 12.9267 91.252 11.7C90.9053 10.46 90.952 9.05333 91.392 7.48C91.5653 6.89333 91.832 6.37333 92.192 5.92C92.5653 5.45333 92.9586 5.10667 93.372 4.88C93.7853 4.64 94.1786 4.44667 94.552 4.3C94.9386 4.14 95.2586 4.04 95.512 4L95.892 3.94ZM111.137 11C111.257 11.1733 111.324 11.3933 111.337 11.66C111.35 11.9267 111.304 12.2067 111.197 12.5C111.104 12.7933 110.937 13.0867 110.697 13.38C110.47 13.6733 110.19 13.94 109.857 14.18C109.524 14.42 109.104 14.6133 108.597 14.76C108.09 14.9067 107.537 14.98 106.937 14.98C106.244 14.98 105.577 14.9 104.937 14.74C104.31 14.5667 103.79 14.36 103.377 14.12C102.977 13.88 102.624 13.6467 102.317 13.42C102.01 13.18 101.79 12.9733 101.657 12.8L101.457 12.56L105.117 9.92C103.504 8.69333 102.47 7.8 102.017 7.24C101.91 7.12 101.844 6.97333 101.817 6.8C101.79 6.61333 101.804 6.42 101.857 6.22C101.924 6.00667 102.024 5.79333 102.157 5.58C102.304 5.35333 102.497 5.14 102.737 4.94C102.99 4.74 103.277 4.56667 103.597 4.42C103.917 4.26 104.31 4.13333 104.777 4.04C105.244 3.94667 105.744 3.9 106.277 3.9C106.81 3.9 107.304 3.93333 107.757 4C108.224 4.05333 108.617 4.13333 108.937 4.24C109.257 4.34667 109.544 4.46 109.797 4.58C110.05 4.7 110.25 4.82 110.397 4.94C110.557 5.06 110.684 5.17333 110.777 5.28C110.884 5.37333 110.957 5.45333 110.997 5.52L111.057 5.62L106.717 8.56C106.997 8.66667 107.344 8.80667 107.757 8.98C108.184 9.15333 108.797 9.46 109.597 9.9C110.41 10.3267 110.924 10.6933 111.137 11ZM3.74289 33.74L0.202891 33.98L0.122891 20.64C0.856224 20.3467 1.62289 20.16 2.42289 20.08C3.22289 19.9867 3.93622 19.98 4.56289 20.06C5.20289 20.1267 5.82956 20.2467 6.44289 20.42C7.06956 20.58 7.55622 20.74 7.90289 20.9C8.26289 21.0467 8.56289 21.1933 8.80289 21.34C8.82956 21.3533 8.86956 21.3733 8.92289 21.4C9.18956 21.56 9.39622 21.6933 9.54289 21.8C9.68956 21.9067 9.86956 22.0933 10.0829 22.36C10.3096 22.6133 10.4496 22.8933 10.5029 23.2C10.5562 23.4933 10.5496 23.8933 10.4829 24.4C10.4162 24.8933 10.2496 25.4533 9.98289 26.08C9.70289 26.72 9.28956 27.2533 8.74289 27.68C8.20956 28.0933 7.65622 28.3733 7.08289 28.52C6.50956 28.6533 5.95622 28.7467 5.42289 28.8C4.88956 28.8533 4.44956 28.8667 4.10289 28.84L3.58289 28.78L3.74289 33.74ZM17.6562 22.9C18.4695 22.9 19.1162 23.2067 19.5962 23.82C20.0762 24.4333 20.4295 25.46 20.6562 26.9L17.6162 28.08L14.7962 29.16V33.98H11.8562L11.6162 28.06L10.7762 22.9H14.7962V24.22C15.6895 23.34 16.6428 22.9 17.6562 22.9ZM25.7943 22.94C26.6076 22.8467 27.3543 22.92 28.0343 23.16C28.7143 23.4 29.2676 23.7467 29.6943 24.2C30.1343 24.6533 30.4743 25.1933 30.7143 25.82C30.9543 26.4467 31.0743 27.0933 31.0743 27.76C31.0743 28.4267 30.9543 29.1067 30.7143 29.8C30.4743 30.48 30.1143 31.1067 29.6343 31.68C29.261 32.12 28.8943 32.4933 28.5343 32.8C28.1876 33.1067 27.8676 33.3533 27.5743 33.54C27.2943 33.7133 26.9943 33.8333 26.6743 33.9C26.3543 33.9667 26.081 34.0067 25.8543 34.02C25.641 34.0333 25.3743 34 25.0543 33.92C24.7476 33.8267 24.5076 33.7467 24.3343 33.68C24.161 33.6133 23.9143 33.5067 23.5943 33.36C23.3943 33.2667 23.241 33.2 23.1343 33.16C22.161 32.7467 21.501 31.9267 21.1543 30.7C20.8076 29.46 20.8543 28.0533 21.2943 26.48C21.4676 25.8933 21.7343 25.3733 22.0943 24.92C22.4676 24.4533 22.861 24.1067 23.2743 23.88C23.6876 23.64 24.081 23.4467 24.4543 23.3C24.841 23.14 25.161 23.04 25.4143 23L25.7943 22.94ZM31.9193 25.72C32.1193 25.44 32.2793 25.22 32.3993 25.06C32.5193 24.9 32.706 24.7067 32.9593 24.48C33.2126 24.24 33.4726 24.06 33.7393 23.94C34.006 23.82 34.366 23.6867 34.8193 23.54C35.2726 23.38 35.7726 23.26 36.3193 23.18C36.8793 23.1 37.5526 23.0333 38.3393 22.98C39.1393 22.9267 40.0393 22.9 41.0393 22.9L40.8393 32.5C40.8393 32.5533 40.8326 32.6333 40.8193 32.74C40.8193 32.8333 40.7926 33.0267 40.7393 33.32C40.686 33.6 40.6126 33.8667 40.5193 34.12C40.426 34.3867 40.2793 34.6867 40.0793 35.02C39.8793 35.3533 39.646 35.64 39.3793 35.88C39.1126 36.12 38.7593 36.3333 38.3193 36.52C37.8926 36.7067 37.4193 36.82 36.8993 36.86C36.686 36.8733 36.4726 36.88 36.2593 36.88C36.046 36.8933 35.8526 36.9 35.6793 36.9C35.506 36.9 35.3393 36.9 35.1793 36.9C35.0193 36.9 34.8793 36.8933 34.7593 36.88C34.6526 36.88 34.5526 36.8733 34.4593 36.86C34.3793 36.86 34.3193 36.86 34.2793 36.86H34.1993L32.0393 33.98H35.5993C35.6393 33.9933 35.6926 34 35.7593 34C35.8393 34.0133 35.9793 34.0067 36.1793 33.98C36.3793 33.9533 36.5593 33.9067 36.7193 33.84C36.8926 33.76 37.0726 33.62 37.2593 33.42C37.4593 33.2067 37.606 32.9467 37.6993 32.64C36.9393 32.9333 36.0193 33.08 34.9393 33.08C34.5393 33.08 34.1193 32.8933 33.6793 32.52C33.2526 32.1333 32.8793 31.64 32.5593 31.04C32.2526 30.44 31.9993 29.8133 31.7993 29.16C31.5993 28.4933 31.506 27.8467 31.5193 27.22C31.5326 26.5933 31.666 26.0933 31.9193 25.72ZM48.6523 22.9C49.4656 22.9 50.1123 23.2067 50.5923 23.82C51.0723 24.4333 51.4256 25.46 51.6523 26.9L48.6123 28.08L45.7923 29.16V33.98H42.8523L42.6123 28.06L41.7723 22.9H45.7923V24.22C46.6856 23.34 47.6389 22.9 48.6523 22.9ZM52.2704 25.96C52.4704 25.6533 52.6304 25.4133 52.7504 25.24C52.8704 25.0667 53.0571 24.8533 53.3104 24.6C53.5637 24.3467 53.8237 24.1533 54.0904 24.02C54.3571 23.8867 54.7171 23.74 55.1704 23.58C55.6237 23.4067 56.1237 23.28 56.6704 23.2C57.2304 23.12 57.9037 23.0533 58.6904 23C59.4904 22.9333 60.3904 22.9 61.3904 22.9L61.1704 33.98H58.7104L58.4304 33.3C58.3637 33.3533 58.2504 33.42 58.0904 33.5C57.9437 33.5667 57.5971 33.6667 57.0504 33.8C56.5037 33.92 55.9171 33.98 55.2904 33.98C54.8904 33.98 54.4704 33.7733 54.0304 33.36C53.6037 32.9333 53.2304 32.4 52.9104 31.76C52.6037 31.1067 52.3504 30.42 52.1504 29.7C51.9504 28.98 51.8571 28.28 51.8704 27.6C51.8837 26.9067 52.0171 26.36 52.2704 25.96ZM78.2034 34L74.1834 33.98C74.1834 33.98 74.3167 33.2 74.5834 31.64C75.05 28.0933 74.7767 26.3267 73.7634 26.34C73.3367 26.34 72.7834 26.6867 72.1034 27.38C72.3167 28.9667 72.4234 31.1733 72.4234 34L68.4034 33.98C68.4034 33.98 68.5367 33.1933 68.8034 31.62C69.27 28.0733 68.9967 26.3133 67.9834 26.34C67.53 26.3533 66.9234 26.7533 66.1634 27.54V33.98H63.2234L62.9834 28.06L62.1434 22.9H66.1634V24.22C67.0567 23.34 68.01 22.9 69.0234 22.9C70.1434 22.9 70.9567 23.5133 71.4634 24.74C72.4767 23.5133 73.5834 22.9 74.7834 22.9C75.65 22.9 76.3234 23.24 76.8034 23.92C77.2834 24.6 77.6367 25.74 77.8634 27.34C78.09 28.94 78.2034 31.16 78.2034 34ZM79.2235 25.96C79.4235 25.6533 79.5835 25.4133 79.7035 25.24C79.8235 25.0667 80.0102 24.8533 80.2635 24.6C80.5168 24.3467 80.7768 24.1533 81.0435 24.02C81.3102 23.8867 81.6702 23.74 82.1235 23.58C82.5768 23.4067 83.0768 23.28 83.6235 23.2C84.1835 23.12 84.8568 23.0533 85.6435 23C86.4435 22.9333 87.3435 22.9 88.3435 22.9L88.1235 33.98H85.6635L85.3835 33.3C85.3168 33.3533 85.2035 33.42 85.0435 33.5C84.8968 33.5667 84.5502 33.6667 84.0035 33.8C83.4568 33.92 82.8702 33.98 82.2435 33.98C81.8435 33.98 81.4235 33.7733 80.9835 33.36C80.5568 32.9333 80.1835 32.4 79.8635 31.76C79.5568 31.1067 79.3035 30.42 79.1035 29.7C78.9035 28.98 78.8102 28.28 78.8235 27.6C78.8368 26.9067 78.9702 26.36 79.2235 25.96ZM94.6365 19.98H98.9565L98.5165 33.98C98.4365 33.98 98.3232 33.9867 98.1765 34C98.0432 34.0133 97.7498 34.0133 97.2965 34C96.8565 33.9867 96.4232 33.96 95.9965 33.92C95.5698 33.88 95.0698 33.8 94.4965 33.68C93.9232 33.5467 93.3898 33.3867 92.8965 33.2C92.4032 33 91.9098 32.7267 91.4165 32.38C90.9232 32.0333 90.5165 31.64 90.1965 31.2C90.1165 31.08 90.0232 30.92 89.9165 30.72C89.8098 30.5067 89.6565 30.0867 89.4565 29.46C89.2565 28.8333 89.1298 28.22 89.0765 27.62C89.0498 27.1267 89.1232 26.6667 89.2965 26.24C89.4698 25.8 89.7232 25.4267 90.0565 25.12C90.3898 24.8 90.7498 24.5267 91.1365 24.3C91.5232 24.0733 91.9432 23.8867 92.3965 23.74C92.5965 23.6733 92.8498 23.58 93.1565 23.46C93.4765 23.3267 93.7432 23.2333 93.9565 23.18C94.1832 23.1133 94.4765 23.06 94.8365 23.02L94.6365 19.98ZM104.525 22.94C105.338 22.8467 106.085 22.92 106.765 23.16C107.445 23.4 107.998 23.7467 108.425 24.2C108.865 24.6533 109.205 25.1933 109.445 25.82C109.685 26.4467 109.805 27.0933 109.805 27.76C109.805 28.4267 109.685 29.1067 109.445 29.8C109.205 30.48 108.845 31.1067 108.365 31.68C107.991 32.12 107.625 32.4933 107.265 32.8C106.918 33.1067 106.598 33.3533 106.305 33.54C106.025 33.7133 105.725 33.8333 105.405 33.9C105.085 33.9667 104.811 34.0067 104.585 34.02C104.371 34.0333 104.105 34 103.785 33.92C103.478 33.8267 103.238 33.7467 103.065 33.68C102.891 33.6133 102.645 33.5067 102.325 33.36C102.125 33.2667 101.971 33.2 101.865 33.16C100.891 32.7467 100.231 31.9267 99.8848 30.7C99.5381 29.46 99.5848 28.0533 100.025 26.48C100.198 25.8933 100.465 25.3733 100.825 24.92C101.198 24.4533 101.591 24.1067 102.005 23.88C102.418 23.64 102.811 23.4467 103.185 23.3C103.571 23.14 103.891 23.04 104.145 23L104.525 22.94ZM117.09 22.9C117.903 22.9 118.55 23.2067 119.03 23.82C119.51 24.4333 119.863 25.46 120.09 26.9L117.05 28.08L114.23 29.16V33.98H111.29L111.05 28.06L110.21 22.9H114.23V24.22C115.123 23.34 116.076 22.9 117.09 22.9ZM129.928 25.08C129.955 25.12 129.975 25.18 129.988 25.26C130.015 25.34 130.055 25.5067 130.108 25.76C130.161 26 130.201 26.2467 130.228 26.5C130.255 26.7533 130.268 27.06 130.268 27.42C130.268 27.78 130.241 28.12 130.188 28.44H124.788V34C124.695 33.9733 124.561 33.9333 124.388 33.88C124.215 33.8133 123.901 33.68 123.448 33.48C123.008 33.2667 122.601 33.0467 122.228 32.82C121.868 32.5933 121.515 32.3067 121.168 31.96C120.821 31.6 120.595 31.24 120.488 30.88C120.328 30.4 120.275 29.82 120.328 29.14C120.395 28.4467 120.515 27.7733 120.688 27.12C120.861 26.4667 121.108 25.86 121.428 25.3C121.748 24.74 122.088 24.3533 122.448 24.14C122.741 23.9667 123.061 23.8067 123.408 23.66C123.768 23.5 124.195 23.34 124.688 23.18C125.181 23.0067 125.668 22.9133 126.148 22.9C126.641 22.8733 127.128 22.9067 127.608 23C128.088 23.08 128.528 23.3 128.928 23.66C129.341 24.02 129.675 24.4933 129.928 25.08ZM140.16 30C140.28 30.1733 140.347 30.3933 140.36 30.66C140.374 30.9267 140.327 31.2067 140.22 31.5C140.127 31.7933 139.96 32.0867 139.72 32.38C139.494 32.6733 139.214 32.94 138.88 33.18C138.547 33.42 138.127 33.6133 137.62 33.76C137.114 33.9067 136.56 33.98 135.96 33.98C135.267 33.98 134.6 33.9 133.96 33.74C133.334 33.5667 132.814 33.36 132.4 33.12C132 32.88 131.647 32.6467 131.34 32.42C131.034 32.18 130.814 31.9733 130.68 31.8L130.48 31.56L134.14 28.92C132.527 27.6933 131.494 26.8 131.04 26.24C130.934 26.12 130.867 25.9733 130.84 25.8C130.814 25.6133 130.827 25.42 130.88 25.22C130.947 25.0067 131.047 24.7933 131.18 24.58C131.327 24.3533 131.52 24.14 131.76 23.94C132.014 23.74 132.3 23.5667 132.62 23.42C132.94 23.26 133.334 23.1333 133.8 23.04C134.267 22.9467 134.767 22.9 135.3 22.9C135.834 22.9 136.327 22.9333 136.78 23C137.247 23.0533 137.64 23.1333 137.96 23.24C138.28 23.3467 138.567 23.46 138.82 23.58C139.074 23.7 139.274 23.82 139.42 23.94C139.58 24.06 139.707 24.1733 139.8 24.28C139.907 24.3733 139.98 24.4533 140.02 24.52L140.08 24.62L135.74 27.56C136.02 27.6667 136.367 27.8067 136.78 27.98C137.207 28.1533 137.82 28.46 138.62 28.9C139.434 29.3267 139.947 29.6933 140.16 30Z" fill="#FFF8F4"/>
</svg>
