<?xml version="1.0" encoding="utf-8"?>
<!-- Generator: Adobe Illustrator 21.0.2, SVG Export Plug-In . SVG Version: 6.00 Build 0)  -->
<svg xmlns="http://www.w3.org/2000/svg" xmlns:xlink="http://www.w3.org/1999/xlink" version="1.1" x="0px" y="0px" viewBox="0 0 720 503.999" enable-background="new 0 0 720 503.999" xml:space="preserve">
<g id="bg">
	
</g>
<g id="_x32_">
	<polyline fill="none" stroke="#1E2326" stroke-width="2" stroke-miterlimit="10" stroke-dasharray="8.018,8.018" points="   349.497,142.95 349.497,99.503 206.775,99.503  "/>
	<polyline fill="none" stroke="#1E2326" stroke-width="2" stroke-miterlimit="10" stroke-dasharray="8.018,8.018" points="   138.311,170.138 138.311,479.821 243.339,479.821 243.339,357.662 272.922,357.662 272.922,426.518 338.406,426.518    338.406,391.379  "/>
	<polyline fill="none" stroke="#1E2326" stroke-width="2" stroke-miterlimit="10" stroke-dasharray="8.018,8.018" points="   389.035,141.563 389.035,55.713 432.237,55.713 432.237,103.985 515.981,103.985  "/>
	<polyline fill="none" stroke="#1E2326" stroke-width="2" stroke-miterlimit="10" stroke-dasharray="8.018,8.018" points="   378.841,391.843 378.841,452.813 437.13,452.813 437.13,403.245 478.674,403.245 478.674,471.173 585.524,471.173 585.524,171.034     "/>
</g>
<g id="Layer_3">
	<g>
		<path fill="#F2F2F2" stroke="#000000" stroke-width="2" stroke-miterlimit="10" d="M181.759,161.85H91.658    c-9.57,0-17.328-7.758-17.328-17.328V73.78c0-9.57,7.758-17.328,17.328-17.328h90.101c9.57,0,17.328,7.758,17.328,17.328v70.741    C199.087,154.091,191.329,161.85,181.759,161.85z"/>
		<g>
			
				<ellipse fill="#FFC907" stroke="#000000" stroke-width="2" stroke-miterlimit="10" cx="114.552" cy="102.891" rx="28.28" ry="28.271"/>
			
				<ellipse fill="#FFE969" stroke="#000000" stroke-width="2" stroke-miterlimit="10" cx="114.552" cy="102.891" rx="22.759" ry="22.752"/>
			<g>
				<path fill="#202D36" stroke="#000000" stroke-width="2" stroke-miterlimit="10" d="M111.565,88.095v-3.029h5.632v3.065      c1.321,0.337,2.509,0.914,3.56,1.731c1.741,1.418,2.612,3.124,2.612,5.12v2.74h-5.632v-2.74c0-0.744-0.331-1.382-0.99-1.911      c-0.662-0.528-1.457-0.793-2.388-0.793c-0.931,0-1.728,0.264-2.388,0.793c-0.662,0.529-0.991,1.167-0.991,1.911v0.939      c0,1.802,2.058,3.582,6.173,5.336c4.143,2.043,6.216,4.76,6.216,8.149v0.901c0,1.995-0.872,3.69-2.612,5.084      c-1.051,0.841-2.238,1.43-3.56,1.766v3.065h-5.632v-3.029c-1.321-0.336-2.508-0.937-3.56-1.802      c-1.771-1.394-2.657-3.089-2.657-5.084v-2.704h5.631v2.704c0,0.745,0.329,1.382,0.991,1.911c0.66,0.528,1.457,0.793,2.388,0.793      c0.931,0,1.726-0.265,2.388-0.793c0.659-0.529,0.99-1.166,0.99-1.911v-0.901c-0.029-1.803-2.103-3.673-6.218-5.608      c-4.114-1.934-6.171-4.572-6.171-7.913v-0.903c0-1.995,0.886-3.702,2.657-5.12C109.057,89.021,110.243,88.432,111.565,88.095z"/>
			</g>
		</g>
		<g>
			
				<ellipse fill="#FFC907" stroke="#000000" stroke-width="2" stroke-miterlimit="10" cx="161.424" cy="97.534" rx="28.28" ry="28.271"/>
			
				<ellipse fill="#FFE969" stroke="#000000" stroke-width="2" stroke-miterlimit="10" cx="161.424" cy="97.535" rx="22.759" ry="22.752"/>
			<g>
				<path fill="#202D36" stroke="#000000" stroke-width="2" stroke-miterlimit="10" d="M158.436,82.738V79.71h5.632v3.065      c1.321,0.337,2.509,0.914,3.56,1.731c1.741,1.418,2.612,3.124,2.612,5.12v2.74h-5.632v-2.74c0-0.744-0.331-1.382-0.99-1.911      c-0.662-0.528-1.457-0.793-2.388-0.793c-0.931,0-1.728,0.264-2.388,0.793c-0.662,0.529-0.991,1.167-0.991,1.911v0.939      c0,1.802,2.058,3.582,6.173,5.336c4.143,2.043,6.216,4.76,6.216,8.149v0.901c0,1.995-0.872,3.69-2.612,5.084      c-1.051,0.841-2.238,1.43-3.56,1.766v3.065h-5.632v-3.029c-1.321-0.336-2.508-0.937-3.56-1.802      c-1.771-1.394-2.657-3.089-2.657-5.084v-2.704h5.631v2.704c0,0.745,0.329,1.382,0.991,1.911c0.66,0.528,1.457,0.793,2.388,0.793      c0.931,0,1.726-0.265,2.388-0.793c0.659-0.529,0.99-1.166,0.99-1.911v-0.901c-0.029-1.803-2.103-3.673-6.218-5.608      c-4.114-1.934-6.171-4.572-6.171-7.913v-0.903c0-1.995,0.886-3.702,2.657-5.12C155.928,83.665,157.114,83.076,158.436,82.738z"/>
			</g>
		</g>
		<g>
			
				<ellipse fill="#FFC907" stroke="#000000" stroke-width="2" stroke-miterlimit="10" cx="142.072" cy="124.232" rx="28.28" ry="28.272"/>
			
				<ellipse fill="#FFE969" stroke="#000000" stroke-width="2" stroke-miterlimit="10" cx="142.072" cy="124.232" rx="22.759" ry="22.752"/>
			<g>
				<path fill="#202D36" stroke="#000000" stroke-width="2" stroke-miterlimit="10" d="M139.084,109.436v-3.029h5.632v3.066      c1.321,0.337,2.509,0.914,3.56,1.73c1.741,1.419,2.612,3.125,2.612,5.121v2.74h-5.632v-2.74c0-0.744-0.33-1.383-0.99-1.912      c-0.661-0.528-1.457-0.793-2.388-0.793c-0.931,0-1.728,0.264-2.388,0.793c-0.661,0.528-0.991,1.167-0.991,1.912v0.939      c0,1.801,2.057,3.581,6.173,5.336c4.143,2.042,6.216,4.758,6.216,8.148v0.902c0,1.995-0.871,3.689-2.612,5.083      c-1.051,0.842-2.238,1.43-3.56,1.768v3.064h-5.632v-3.029c-1.321-0.337-2.507-0.937-3.559-1.803      c-1.772-1.394-2.657-3.088-2.657-5.083v-2.705h5.631v2.705c0,0.744,0.329,1.381,0.991,1.91c0.661,0.528,1.457,0.793,2.388,0.793      c0.93,0,1.726-0.265,2.388-0.793c0.66-0.529,0.99-1.166,0.99-1.91v-0.902c-0.029-1.803-2.102-3.672-6.217-5.608      c-4.114-1.934-6.171-4.573-6.171-7.914v-0.901c0-1.996,0.885-3.702,2.657-5.121      C136.577,110.362,137.762,109.773,139.084,109.436z"/>
			</g>
		</g>
	</g>
</g>
<g id="Layer_4">
	<path fill="#F2F2F2" stroke="#000000" stroke-width="2" stroke-miterlimit="10" d="M182.434,305.766H90.982   c-9.796,0-17.737-7.941-17.737-17.738v-73.072c0-9.796,7.941-17.738,17.737-17.738h91.452c9.796,0,17.738,7.941,17.738,17.738   v73.072C200.172,297.824,192.23,305.766,182.434,305.766z"/>
	<path fill-rule="evenodd" clip-rule="evenodd" fill="#EB5A71" stroke="#000000" stroke-width="2" stroke-miterlimit="10" d="   M176.674,221.136h-70.451c-2.994,0-5.42,2.456-5.42,5.485v43.127c0,3.029,2.426,5.485,5.42,5.485h70.451   c2.994,0,5.42-2.456,5.42-5.485v-43.127C182.093,223.592,179.668,221.136,176.674,221.136"/>
	<g>
		<g>
			<defs>
				<rect id="SVGID_1_" x="100.803" y="229.363" width="81.29" height="10.223"/>
			</defs>
			<use xlink:href="#SVGID_1_" overflow="visible" fill="#202D36"/>
			<clipPath id="SVGID_2_">
				<use xlink:href="#SVGID_1_" overflow="visible"/>
			</clipPath>
			
				<rect x="100.803" y="229.363" clip-path="url(#SVGID_2_)" fill-rule="evenodd" clip-rule="evenodd" stroke="#000000" stroke-width="2" stroke-miterlimit="10" width="81.29" height="10.223"/>
			<use xlink:href="#SVGID_1_" overflow="visible" fill="none" stroke="#000000" stroke-width="2" stroke-miterlimit="10"/>
		</g>
	</g>
	<path fill-rule="evenodd" clip-rule="evenodd" fill="#FFFFFF" stroke="#000000" stroke-width="2" stroke-miterlimit="10" d="   M166.822,255.105c0,0.573-0.459,1.037-1.024,1.037h-47.613c-0.566,0-1.024-0.464-1.024-1.037v-7.226   c0-0.572,0.459-1.037,1.024-1.037h47.613c0.566,0,1.024,0.465,1.024,1.037V255.105z"/>
	<path fill-rule="evenodd" clip-rule="evenodd" fill="#FFFFFF" stroke="#000000" stroke-width="2" stroke-miterlimit="10" d="   M128.292,265.396c0,0.572-0.392,1.037-0.875,1.037h-17.4c-0.483,0-0.875-0.465-0.875-1.037v-1.992c0-0.572,0.392-1.037,0.875-1.037   h17.4c0.483,0,0.875,0.465,0.875,1.037V265.396z"/>
	<path fill-rule="evenodd" clip-rule="evenodd" fill="#FFFFFF" stroke="#000000" stroke-width="2" stroke-miterlimit="10" d="   M151.566,265.396c0,0.572-0.392,1.037-0.875,1.037h-17.4c-0.483,0-0.875-0.465-0.875-1.037v-1.992c0-0.572,0.392-1.037,0.875-1.037   h17.4c0.483,0,0.875,0.465,0.875,1.037V265.396z"/>
	<path fill-rule="evenodd" clip-rule="evenodd" fill="#FFFFFF" stroke="#000000" stroke-width="2" stroke-miterlimit="10" d="   M174.84,265.396c0,0.572-0.392,1.037-0.875,1.037h-17.4c-0.483,0-0.875-0.465-0.875-1.037v-1.992c0-0.572,0.392-1.037,0.875-1.037   h17.4c0.483,0,0.875,0.465,0.875,1.037V265.396z"/>
	<path fill-rule="evenodd" clip-rule="evenodd" fill="#5FD4AF" stroke="#000000" stroke-width="2" stroke-miterlimit="10" d="   M165.995,224.444H95.544c-2.994,0-5.42,2.456-5.42,5.485v43.127c0,3.029,2.426,5.485,5.42,5.485h70.451   c2.994,0,5.42-2.456,5.42-5.485v-43.127C171.415,226.9,168.989,224.444,165.995,224.444"/>
	<g>
		<g>
			<defs>
				<rect id="SVGID_3_" x="90.124" y="232.671" width="81.29" height="10.223"/>
			</defs>
			<use xlink:href="#SVGID_3_" overflow="visible" fill="#202D36"/>
			<clipPath id="SVGID_4_">
				<use xlink:href="#SVGID_3_" overflow="visible"/>
			</clipPath>
			
				<rect x="90.124" y="232.671" clip-path="url(#SVGID_4_)" fill-rule="evenodd" clip-rule="evenodd" stroke="#000000" stroke-width="2" stroke-miterlimit="10" width="81.29" height="10.223"/>
			<use xlink:href="#SVGID_3_" overflow="visible" fill="none" stroke="#000000" stroke-width="2" stroke-miterlimit="10"/>
		</g>
	</g>
	<path fill-rule="evenodd" clip-rule="evenodd" fill="#FFFFFF" stroke="#000000" stroke-width="2" stroke-miterlimit="10" d="   M156.143,258.414c0,0.573-0.459,1.037-1.024,1.037h-47.613c-0.566,0-1.024-0.464-1.024-1.037v-7.226   c0-0.572,0.459-1.037,1.024-1.037h47.613c0.566,0,1.024,0.465,1.024,1.037V258.414z"/>
	<path fill-rule="evenodd" clip-rule="evenodd" fill="#FFFFFF" stroke="#000000" stroke-width="2" stroke-miterlimit="10" d="   M117.614,268.704c0,0.572-0.392,1.037-0.875,1.037h-17.4c-0.483,0-0.875-0.465-0.875-1.037v-1.992c0-0.572,0.392-1.037,0.875-1.037   h17.4c0.483,0,0.875,0.465,0.875,1.037V268.704z"/>
	<path fill-rule="evenodd" clip-rule="evenodd" fill="#FFFFFF" stroke="#000000" stroke-width="2" stroke-miterlimit="10" d="   M140.887,268.704c0,0.572-0.392,1.037-0.875,1.037h-17.4c-0.483,0-0.875-0.465-0.875-1.037v-1.992c0-0.572,0.392-1.037,0.875-1.037   h17.4c0.483,0,0.875,0.465,0.875,1.037V268.704z"/>
	<path fill-rule="evenodd" clip-rule="evenodd" fill="#FFFFFF" stroke="#000000" stroke-width="2" stroke-miterlimit="10" d="   M164.161,268.704c0,0.572-0.392,1.037-0.875,1.037h-17.4c-0.483,0-0.875-0.465-0.875-1.037v-1.992c0-0.572,0.392-1.037,0.875-1.037   h17.4c0.483,0,0.875,0.465,0.875,1.037V268.704z"/>
</g>
<g id="Layer_6">
	<path fill="#F2F2F2" stroke="#000000" stroke-width="2" stroke-miterlimit="10" d="M184.765,440.686H94.064   c-9.636,0-17.447-7.811-17.447-17.447v-71.242c0-9.636,7.811-17.447,17.447-17.447h90.701c9.636,0,17.447,7.811,17.447,17.447   v71.242C202.212,432.875,194.401,440.686,184.765,440.686z"/>
	<path fill="#EB5A71" stroke="#000000" stroke-width="2" stroke-miterlimit="10" d="M107.051,345.429h64.728   c2.976,0,5.394,2.419,5.394,5.393v75.516c0,2.977-2.418,5.396-5.394,5.396h-64.728c-2.976,0-5.395-2.42-5.395-5.396v-75.516   C101.656,347.842,104.075,345.429,107.051,345.429z"/>
	<path fill="#FFBE1C" stroke="#000000" stroke-width="2" stroke-miterlimit="10" d="M119.188,353.52h40.455   c5.213,0,9.44,4.226,9.44,9.44l0,0c0,5.213-4.226,9.44-9.44,9.44h-40.455c-5.213,0-9.44-4.226-9.44-9.44l0,0   C109.748,357.747,113.974,353.52,119.188,353.52z"/>
	<path fill="#202D36" stroke="#000000" stroke-width="2" stroke-miterlimit="10" d="M115.141,391.275h0.003   c2.978,0,5.392-2.414,5.392-5.392v-0.003c0-2.978-2.414-5.392-5.392-5.392h-0.003c-2.978,0-5.392,2.414-5.392,5.392v0.003   C109.748,388.861,112.162,391.275,115.141,391.275z M131.322,391.275h0.004c2.978,0,5.392-2.414,5.392-5.392v-0.003   c0-2.978-2.414-5.392-5.392-5.392h-0.004c-2.978,0-5.392,2.414-5.392,5.392v0.003C125.929,388.861,128.344,391.275,131.322,391.275   z M142.112,385.884v0.003c0,2.978,2.414,5.392,5.392,5.392h0.003c2.978,0,5.392-2.414,5.392-5.392v-0.003   c0-2.978-2.414-5.392-5.392-5.392h-0.003C144.526,380.491,142.112,382.905,142.112,385.884z M115.141,407.458h0.003   c2.978,0,5.392-2.414,5.392-5.392v0c0-2.978-2.414-5.392-5.392-5.392h-0.003c-2.978,0-5.392,2.414-5.392,5.392v0   C109.748,405.044,112.162,407.458,115.141,407.458z M131.322,407.458h0.004c2.978,0,5.392-2.414,5.392-5.392v0   c0-2.978-2.414-5.392-5.392-5.392h-0.004c-2.978,0-5.392,2.414-5.392,5.392v0C125.929,405.044,128.344,407.458,131.322,407.458z    M147.504,407.458h0.003c2.978,0,5.392-2.414,5.392-5.392v0c0-2.978-2.414-5.392-5.392-5.392h-0.003   c-2.978,0-5.392,2.414-5.392,5.392v0C142.112,405.044,144.526,407.458,147.504,407.458z M115.141,423.641h0.003   c2.978,0,5.392-2.414,5.392-5.392v-0.004c0-2.978-2.414-5.392-5.392-5.392h-0.003c-2.978,0-5.392,2.414-5.392,5.392v0.004   C109.748,421.226,112.162,423.641,115.141,423.641z M131.322,423.641h0.004c2.978,0,5.392-2.414,5.392-5.392v-0.004   c0-2.978-2.414-5.392-5.392-5.392h-0.004c-2.978,0-5.392,2.414-5.392,5.392v0.004C125.929,421.226,128.344,423.641,131.322,423.641   z M147.504,423.641h0.003c2.978,0,5.392-2.414,5.392-5.392v-0.004c0-2.978-2.414-5.392-5.392-5.392h-0.003   c-2.978,0-5.392,2.414-5.392,5.392v0.004C142.112,421.226,144.526,423.641,147.504,423.641z"/>
	<path fill="#202D36" stroke="#000000" stroke-width="2" stroke-miterlimit="10" d="M158.294,385.884v0.003   c0,2.978,2.414,5.392,5.392,5.392h0.004c2.978,0,5.392-2.414,5.392-5.392v-0.003c0-2.978-2.414-5.392-5.392-5.392h-0.004   C160.708,380.491,158.294,382.905,158.294,385.884z M163.686,423.641h0.004c2.978,0,5.392-2.414,5.392-5.392v-16.182   c0-2.978-2.414-5.392-5.392-5.392h-0.004c-2.978,0-5.392,2.414-5.392,5.392v16.182   C158.294,421.226,160.708,423.641,163.686,423.641z"/>
</g>
<g id="Layer7">
	<path fill="#F2F2F2" stroke="#000000" stroke-width="2" stroke-miterlimit="10" d="M629.646,161.85h-90.701   c-9.636,0-17.447-7.811-17.447-17.447V73.16c0-9.636,7.811-17.447,17.447-17.447h90.701c9.636,0,17.447,7.811,17.447,17.447v71.242   C647.093,154.038,639.282,161.85,629.646,161.85z"/>
	<g>
		<g>
			<path fill="#EB5A71" d="M551.797,101.522c-4.677,0-8.382,0.653-8.234,1.452s0.978,5.212,1.844,9.809l3.523,18.712     c0.865,4.596,5.4,8.357,10.077,8.357h46.253c4.677,0,9.212-3.761,10.077-8.357l3.523-18.712c0.865-4.596,1.695-9.01,1.844-9.809     c0.149-0.798-3.556-1.452-8.234-1.452H551.797z"/>
			<path fill="none" stroke="#000000" stroke-width="2" stroke-miterlimit="10" d="M551.797,101.522     c-4.677,0-8.382,0.653-8.234,1.452s0.978,5.212,1.844,9.809l3.523,18.712c0.865,4.596,5.4,8.357,10.077,8.357h46.253     c4.677,0,9.212-3.761,10.077-8.357l3.523-18.712c0.865-4.596,1.695-9.01,1.844-9.809c0.149-0.798-3.556-1.452-8.234-1.452     H551.797z"/>
		</g>
		<path fill="#CDD6E0" stroke="#000000" stroke-width="2" stroke-miterlimit="10" d="M621.875,91.64h-79.303    c-1.982,0-3.604,1.622-3.604,3.604v5.136c0,1.983,1.622,3.605,3.604,3.605h79.303c1.982,0,3.604-1.623,3.604-3.605v-5.136    C625.48,93.262,623.858,91.64,621.875,91.64z"/>
		<g>
			<path fill="#202D36" stroke="#000000" stroke-width="2" stroke-miterlimit="10" d="M558.962,100.853     c2.524,2.358,6.669,2.358,9.193,0l20.186-19.026c2.523-2.358,2.523-6.23,0-8.588c-2.523-2.356-6.668-2.356-9.192,0     l-20.186,18.859C556.439,94.622,556.439,98.496,558.962,100.853z"/>
			<path fill="#202D36" stroke="#000000" stroke-width="2" stroke-miterlimit="10" d="M599.267,100.853     c2.523,2.358,6.668,2.358,9.192,0c2.523-2.357,2.523-6.231,0-8.587l-20.186-18.858c-2.524-2.357-6.668-2.357-9.192,0     c-2.523,2.357-2.523,6.23,0,8.587L599.267,100.853z"/>
		</g>
	</g>
	
		<rect x="557.07" y="109.505" fill="#202D36" stroke="#000000" stroke-width="2" stroke-miterlimit="10" width="2.869" height="21.6"/>
	
		<rect x="564.183" y="109.505" fill="#202D36" stroke="#000000" stroke-width="2" stroke-miterlimit="10" width="2.869" height="21.6"/>
	
		<rect x="571.297" y="109.505" fill="#202D36" stroke="#000000" stroke-width="2" stroke-miterlimit="10" width="2.869" height="21.6"/>
	
		<rect x="578.411" y="109.505" fill="#202D36" stroke="#000000" stroke-width="2" stroke-miterlimit="10" width="2.869" height="21.6"/>
	
		<rect x="585.524" y="109.505" fill="#202D36" stroke="#000000" stroke-width="2" stroke-miterlimit="10" width="2.869" height="21.6"/>
	
		<rect x="592.638" y="109.505" fill="#202D36" stroke="#000000" stroke-width="2" stroke-miterlimit="10" width="2.869" height="21.6"/>
	
		<rect x="599.752" y="109.505" fill="#202D36" stroke="#000000" stroke-width="2" stroke-miterlimit="10" width="2.869" height="21.6"/>
	
		<rect x="606.865" y="109.505" fill="#202D36" stroke="#000000" stroke-width="2" stroke-miterlimit="10" width="2.869" height="21.6"/>
</g>
<g id="Layer_5">
	<path fill="#F2F2F2" stroke="#000000" stroke-width="2" stroke-miterlimit="10" d="M629.646,304.051h-90.701   c-9.636,0-17.447-7.811-17.447-17.447v-71.242c0-9.636,7.811-17.447,17.447-17.447h90.701c9.636,0,17.447,7.811,17.447,17.447   v71.242C647.093,296.239,639.282,304.051,629.646,304.051z"/>
	<g id="body_3_">
		<g>
			<path fill="#EF7E32" d="M618.033,245.556h-65.019c-1.582,0-2.865,1.283-2.865,2.865v39.664c0,1.582,1.283,2.865,2.865,2.865     h65.019c1.582,0,2.865-1.283,2.865-2.865v-39.664C620.898,246.839,619.616,245.556,618.033,245.556z"/>
		</g>
		<g>
			<path fill="none" stroke="#000000" stroke-width="2" stroke-miterlimit="10" d="M618.033,245.556h-65.019     c-1.582,0-2.865,1.283-2.865,2.865v39.664c0,1.582,1.283,2.865,2.865,2.865h65.019c1.582,0,2.865-1.283,2.865-2.865v-39.664     C620.898,246.839,619.616,245.556,618.033,245.556z"/>
		</g>
	</g>
	<g id="cover_2_">
		<g>
			<path fill="#F0672E" d="M622.75,236.71h-74.451c-1.582,0-2.865,1.283-2.865,2.865v6.062c0,1.582,1.283,2.865,2.865,2.865h74.451     c1.582,0,2.865-1.283,2.865-2.865v-6.062C625.615,237.992,624.332,236.71,622.75,236.71z"/>
		</g>
		<g>
			<path fill="none" stroke="#000000" stroke-width="2" stroke-miterlimit="10" d="M622.75,236.71h-74.451     c-1.582,0-2.865,1.283-2.865,2.865v6.062c0,1.582,1.283,2.865,2.865,2.865h74.451c1.582,0,2.865-1.283,2.865-2.865v-6.062     C625.615,237.992,624.332,236.71,622.75,236.71z"/>
		</g>
	</g>
	<g id="Rectangle_12_copy_2_">
		<g>
			<path fill="#49C8F5" d="M605.249,207.23c-6.512,0-19.725,11.176-19.725,17.688c0-6.511-12.327-16.332-18.839-16.332     c-6.512,0-11.791,5.28-11.791,11.792c0,6.512,12.327,16.332,18.839,16.332h5.896v54.24h11.791v-54.24h5.896     c6.512,0,19.724-11.175,19.724-17.688C617.04,212.511,611.761,207.23,605.249,207.23z M578.449,229.634h-4.716     c-2.604,0-11.764-6.651-11.764-9.256c0-2.604,2.112-4.716,4.717-4.716c2.605,0,11.764,6.651,11.764,9.255V229.634z      M597.316,229.634h-4.716v-4.716c0-2.604,10.045-10.611,12.65-10.611c2.605,0,4.716,2.111,4.716,4.716     C609.965,221.627,599.92,229.634,597.316,229.634z"/>
		</g>
		<g>
			<path fill="none" stroke="#000000" stroke-width="2" stroke-miterlimit="10" d="M605.249,207.23     c-6.512,0-19.725,11.176-19.725,17.688c0-6.511-12.327-16.332-18.839-16.332c-6.512,0-11.791,5.28-11.791,11.792     c0,6.512,12.327,16.332,18.839,16.332h5.896v54.24h11.791v-54.24h5.896c6.512,0,19.724-11.175,19.724-17.688     C617.04,212.511,611.761,207.23,605.249,207.23z M578.449,229.634h-4.716c-2.604,0-11.764-6.651-11.764-9.256     c0-2.604,2.112-4.716,4.717-4.716c2.605,0,11.764,6.651,11.764,9.255V229.634z M597.316,229.634h-4.716v-4.716     c0-2.604,10.045-10.611,12.65-10.611c2.605,0,4.716,2.111,4.716,4.716C609.965,221.627,599.92,229.634,597.316,229.634z"/>
		</g>
	</g>
</g>
<g id="Layer8">
	<path fill="#F2F2F2" stroke="#000000" stroke-width="2" stroke-miterlimit="10" d="M629.646,440.686h-90.701   c-9.636,0-17.447-7.811-17.447-17.447v-71.242c0-9.636,7.811-17.447,17.447-17.447h90.701c9.636,0,17.447,7.811,17.447,17.447   v71.242C647.093,432.875,639.282,440.686,629.646,440.686z"/>
	<path fill="#5FD4AF" stroke="#000000" stroke-width="2" stroke-miterlimit="10" d="M546.078,412.701h81.762   c3.474,0,6.29-2.815,6.29-6.29v-37.733c0-3.475-2.816-6.291-6.29-6.291h-81.762c-3.474,0-6.29,2.816-6.29,6.291v37.733   C539.788,409.886,542.604,412.701,546.078,412.701z"/>
	<path fill-rule="evenodd" clip-rule="evenodd" fill="#81DDC0" stroke="#000000" stroke-width="2" stroke-miterlimit="10" d="   M627.617,401.155v-27.223c-3.222,0-5.833-2.612-5.833-5.834h-69.65c0,3.222-2.612,5.834-5.834,5.834v27.223   c3.222,0,5.834,2.612,5.834,5.834h69.65C621.784,403.767,624.395,401.155,627.617,401.155z"/>
	
		<circle fill-rule="evenodd" clip-rule="evenodd" fill="#5FD4AF" stroke="#000000" stroke-width="2" stroke-miterlimit="10" cx="586.959" cy="387.33" r="18.315"/>
	<g>
		<path fill="#81DDC0" stroke="#000000" stroke-width="2" stroke-miterlimit="10" d="M584.886,374.546v-2.248h4.178v2.275    c0.98,0.25,1.861,0.678,2.641,1.284c1.292,1.053,1.938,2.319,1.938,3.8v2.033h-4.178v-2.033c0-0.552-0.245-1.026-0.734-1.418    c-0.491-0.392-1.081-0.588-1.771-0.588c-0.691,0-1.282,0.196-1.772,0.588c-0.491,0.392-0.735,0.866-0.735,1.418v0.697    c0,1.336,1.526,2.657,4.579,3.96c3.073,1.515,4.611,3.531,4.611,6.046v0.669c0,1.48-0.646,2.738-1.938,3.772    c-0.78,0.625-1.66,1.061-2.641,1.312v2.273h-4.178v-2.247c-0.98-0.25-1.859-0.696-2.64-1.338    c-1.315-1.034-1.971-2.292-1.971-3.772v-2.007h4.177v2.007c0,0.552,0.244,1.025,0.735,1.417c0.49,0.392,1.081,0.589,1.772,0.589    c0.69,0,1.28-0.197,1.771-0.589c0.489-0.393,0.734-0.865,0.734-1.417v-0.669c-0.021-1.338-1.56-2.725-4.612-4.161    c-3.052-1.436-4.578-3.393-4.578-5.873v-0.669c0-1.481,0.656-2.747,1.971-3.8C583.027,375.233,583.906,374.796,584.886,374.546z"/>
	</g>
</g>
<g id="Layer_9">
	<path fill="#FFFFFF" stroke="#000000" stroke-width="2" stroke-miterlimit="10" d="M422.712,150.311H313.543   c-5.237,0-9.524,4.288-9.524,9.524v209.528c0,5.238,4.287,9.524,9.524,9.524h109.169c5.236,0,9.524-4.286,9.524-9.524V159.835   C432.237,154.599,427.949,150.311,422.712,150.311z"/>
	
		<rect x="311.83" y="170.138" fill="#5FD4AF" stroke="#000000" stroke-width="2" stroke-miterlimit="10" width="112.597" height="171.055"/>
	<g>
		
			<ellipse fill="#FFFFFF" stroke="#000000" stroke-width="2" stroke-miterlimit="10" cx="368.366" cy="358.412" rx="10.477" ry="10.477"/>
	</g>
	<path fill="#E6E9ED" stroke="#000000" stroke-width="2" stroke-miterlimit="10" d="M386.759,160.701c0,1.104-0.896,2-2,2h-33.263   c-1.104,0-2-0.896-2-2l0,0c0-1.105,0.896-2,2-2h33.263C385.864,158.701,386.759,159.596,386.759,160.701L386.759,160.701z"/>
	<g>
		<rect x="326.575" y="248.688" stroke="#000000" stroke-width="2" stroke-miterlimit="10" width="83.58" height="8.981"/>
		<rect x="353.29" y="267.573" stroke="#000000" stroke-width="2" stroke-miterlimit="10" width="56.865" height="8.984"/>
		<rect x="326.575" y="267.573" stroke="#000000" stroke-width="2" stroke-miterlimit="10" width="18.381" height="8.984"/>
		<rect x="326.575" y="286.521" stroke="#000000" stroke-width="2" stroke-miterlimit="10" width="55.147" height="8.984"/>
	</g>
	<g>
		<g>
			<g>
				<path fill="#FF617B" stroke="#000000" stroke-width="2" stroke-miterlimit="10" d="M282.317,196.516v18.419      c0,7.771,6.3,14.073,14.074,14.073c7.772,0,14.072-6.302,14.072-14.073v-18.419H282.317z"/>
			</g>
			<g>
				<path fill="#FF617B" stroke="#000000" stroke-width="2" stroke-miterlimit="10" d="M338.613,196.516v18.58      c0,7.814,6.339,14.152,14.154,14.152c7.818,0,14.155-6.338,14.155-14.152v-18.58H338.613z"/>
			</g>
			<g>
				<path fill="#EB5A71" stroke="#000000" stroke-width="2" stroke-miterlimit="10" d="M310.463,196.516v18.419      c0,7.771,6.301,14.073,14.075,14.073c7.77,0,14.074-6.302,14.074-14.073v-18.419H310.463z"/>
			</g>
			<g>
				<path fill="#EB5A71" stroke="#000000" stroke-width="2" stroke-miterlimit="10" d="M366.761,196.516v18.419      c0,7.771,6.3,14.073,14.074,14.073c7.772,0,14.073-6.302,14.073-14.073v-18.419H366.761z"/>
			</g>
			<g>
				<path fill="#EB5A71" stroke="#000000" stroke-width="2" stroke-miterlimit="10" d="M394.909,196.516v18.419      c0,7.771,6.3,14.073,14.074,14.073c7.773,0,14.073-6.302,14.073-14.073v-18.419H394.909z"/>
			</g>
			<g>
				<path fill="#EB5A71" stroke="#000000" stroke-width="2" stroke-miterlimit="10" d="M423.056,196.516v18.419      c0,7.771,6.3,14.073,14.074,14.073c7.772,0,14.073-6.302,14.073-14.073v-18.419H423.056z"/>
			</g>
		</g>
		
			<polygon fill="#F2F2F2" stroke="#000000" stroke-width="2" stroke-linecap="round" stroke-linejoin="round" stroke-miterlimit="10" points="    282.317,196.516 311.83,170.138 424.426,170.138 451.204,196.24   "/>
		
			<line fill="none" stroke="#000000" stroke-width="2" stroke-linecap="round" stroke-linejoin="round" stroke-miterlimit="10" x1="366.922" y1="196.516" x2="366.922" y2="171.034"/>
		
			<line fill="none" stroke="#000000" stroke-width="2" stroke-linecap="round" stroke-linejoin="round" stroke-miterlimit="10" x1="338.613" y1="196.516" x2="350.356" y2="170.138"/>
		
			<line fill="none" stroke="#000000" stroke-width="2" stroke-linecap="round" stroke-linejoin="round" stroke-miterlimit="10" x1="310.463" y1="196.516" x2="332.582" y2="171.034"/>
		
			<line fill="none" stroke="#000000" stroke-width="2" stroke-linecap="round" stroke-linejoin="round" stroke-miterlimit="10" x1="394.907" y1="196.516" x2="383.163" y2="170.138"/>
		
			<line fill="none" stroke="#000000" stroke-width="2" stroke-linecap="round" stroke-linejoin="round" stroke-miterlimit="10" x1="423.056" y1="196.516" x2="400.938" y2="171.034"/>
	</g>
</g>
<g id="Layer_11">
	<g>
		
			<line fill="none" stroke="#FFFFFF" stroke-width="2" stroke-linecap="round" stroke-linejoin="round" stroke-miterlimit="10" x1="87.331" y1="468.629" x2="97.585" y2="468.301"/>
		
			<line fill="none" stroke="#FFFFFF" stroke-width="2" stroke-linecap="round" stroke-linejoin="round" stroke-miterlimit="10" x1="92.291" y1="463.335" x2="92.619" y2="473.594"/>
	</g>
	<g>
		
			<line fill="none" stroke="#1E2326" stroke-width="2" stroke-linecap="round" stroke-linejoin="round" stroke-miterlimit="10" x1="351.039" y1="442.152" x2="361.293" y2="441.824"/>
		
			<line fill="none" stroke="#1E2326" stroke-width="2" stroke-linecap="round" stroke-linejoin="round" stroke-miterlimit="10" x1="355.999" y1="436.858" x2="356.328" y2="447.117"/>
	</g>
	<g>
		
			<line fill="none" stroke="#FFFFFF" stroke-width="2" stroke-linecap="round" stroke-linejoin="round" stroke-miterlimit="10" x1="222.243" y1="275.826" x2="232.497" y2="275.498"/>
		
			<line fill="none" stroke="#FFFFFF" stroke-width="2" stroke-linecap="round" stroke-linejoin="round" stroke-miterlimit="10" x1="227.203" y1="270.533" x2="227.531" y2="280.791"/>
	</g>
	<g>
		
			<line fill="none" stroke="#1E2326" stroke-width="2" stroke-linecap="round" stroke-linejoin="round" stroke-miterlimit="10" x1="457.997" y1="171.175" x2="468.251" y2="170.847"/>
		
			<line fill="none" stroke="#1E2326" stroke-width="2" stroke-linecap="round" stroke-linejoin="round" stroke-miterlimit="10" x1="462.957" y1="165.881" x2="463.285" y2="176.14"/>
	</g>
	<g>
		
			<line fill="none" stroke="#FFFFFF" stroke-width="2" stroke-linecap="round" stroke-linejoin="round" stroke-miterlimit="10" x1="670.169" y1="260.625" x2="680.423" y2="260.297"/>
		
			<line fill="none" stroke="#FFFFFF" stroke-width="2" stroke-linecap="round" stroke-linejoin="round" stroke-miterlimit="10" x1="675.129" y1="255.331" x2="675.457" y2="265.59"/>
	</g>
	<g>
		
			<line fill="none" stroke="#FFFFFF" stroke-width="2" stroke-linecap="round" stroke-linejoin="round" stroke-miterlimit="10" x1="251.755" y1="112.291" x2="262.009" y2="111.963"/>
		
			<line fill="none" stroke="#FFFFFF" stroke-width="2" stroke-linecap="round" stroke-linejoin="round" stroke-miterlimit="10" x1="256.715" y1="106.998" x2="257.043" y2="117.256"/>
	</g>
	<g>
		
			<line fill="none" stroke="#1E2326" stroke-width="2" stroke-linecap="round" stroke-linejoin="round" stroke-miterlimit="10" x1="687.944" y1="314.323" x2="698.198" y2="313.995"/>
		
			<line fill="none" stroke="#1E2326" stroke-width="2" stroke-linecap="round" stroke-linejoin="round" stroke-miterlimit="10" x1="692.904" y1="309.029" x2="693.232" y2="319.287"/>
	</g>
	<g>
		
			<line fill="none" stroke="#FFFFFF" stroke-width="2" stroke-linecap="round" stroke-linejoin="round" stroke-miterlimit="10" x1="646.712" y1="324.463" x2="656.966" y2="324.135"/>
		
			<line fill="none" stroke="#FFFFFF" stroke-width="2" stroke-linecap="round" stroke-linejoin="round" stroke-miterlimit="10" x1="651.672" y1="319.169" x2="652" y2="329.428"/>
	</g>
	<g>
		
			<line fill="none" stroke="#1E2326" stroke-width="2" stroke-linecap="round" stroke-linejoin="round" stroke-miterlimit="10" x1="619.112" y1="468.646" x2="629.366" y2="468.318"/>
		
			<line fill="none" stroke="#1E2326" stroke-width="2" stroke-linecap="round" stroke-linejoin="round" stroke-miterlimit="10" x1="624.072" y1="463.352" x2="624.4" y2="473.611"/>
	</g>
	<g>
		
			<ellipse transform="matrix(0.8464 -0.5325 0.5325 0.8464 -233.39 101.3712)" fill="none" stroke="#1E2326" stroke-width="2" stroke-linecap="round" stroke-linejoin="round" stroke-miterlimit="10" cx="59.042" cy="455.289" rx="4.191" ry="4.191"/>
	</g>
	<g>
		
			<ellipse transform="matrix(0.8464 -0.5325 0.5325 0.8464 -101.9802 175.4806)" fill="none" stroke="#1E2326" stroke-width="2" stroke-linecap="round" stroke-linejoin="round" stroke-miterlimit="10" cx="253.226" cy="264.535" rx="4.191" ry="4.191"/>
	</g>
	<g>
		<path fill="none" stroke="#FFFFFF" stroke-width="2" stroke-linecap="round" stroke-linejoin="round" stroke-miterlimit="10" d="    M484.889,194c-2.166,1.888-5.487,1.134-6.632-1.495c-0.712-1.636-0.262-3.624,1.085-4.794c2.161-1.878,5.473-1.133,6.623,1.49    C486.683,190.836,486.236,192.827,484.889,194z"/>
	</g>
	<g>
		<path fill="none" stroke="#1E2326" stroke-width="2" stroke-linecap="round" stroke-linejoin="round" stroke-miterlimit="10" d="    M495.597,156.656c-2.166,1.887-5.487,1.133-6.631-1.495c-0.712-1.636-0.262-3.624,1.085-4.794c2.161-1.878,5.473-1.133,6.623,1.49    C497.391,153.492,496.943,155.482,495.597,156.656z"/>
	</g>
	<g>
		
			<ellipse transform="matrix(0.8464 -0.5325 0.5325 0.8464 -158.4429 366.6599)" fill="none" stroke="#FFFFFF" stroke-width="2" stroke-linecap="round" stroke-linejoin="round" stroke-miterlimit="10" cx="556.406" cy="458" rx="4.191" ry="4.191"/>
	</g>
	<g>
		
			<ellipse transform="matrix(0.8464 -0.5325 0.5325 0.8464 -9.1894 29.5776)" fill="none" stroke="#1E2326" stroke-width="2" stroke-linecap="round" stroke-linejoin="round" stroke-miterlimit="10" cx="46.68" cy="30.719" rx="4.191" ry="4.191"/>
	</g>
	<g>
		
			<ellipse transform="matrix(0.8464 -0.5325 0.5325 0.8464 -89.9336 325.2841)" fill="none" stroke="#FFFFFF" stroke-width="2" stroke-linecap="round" stroke-linejoin="round" stroke-miterlimit="10" cx="518.944" cy="318.55" rx="4.191" ry="4.191"/>
	</g>
	<g>
		
			<ellipse transform="matrix(0.8464 -0.5325 0.5325 0.8464 25.2853 182.1691)" fill="none" stroke="#1E2326" stroke-width="2" stroke-linecap="round" stroke-linejoin="round" stroke-miterlimit="10" cx="328.453" cy="47.25" rx="4.191" ry="4.191"/>
	</g>
	<g>
		
			<ellipse transform="matrix(0.8464 -0.5325 0.5325 0.8464 -203.2494 254.3356)" fill="none" stroke="#FFFFFF" stroke-width="2" stroke-linecap="round" stroke-linejoin="round" stroke-miterlimit="10" cx="339.289" cy="479.519" rx="4.191" ry="4.191"/>
	</g>
	<g>
		
			<ellipse transform="matrix(0.8464 -0.5325 0.5325 0.8464 -34.3438 138.2805)" fill="none" stroke="#FFFFFF" stroke-width="2" stroke-linecap="round" stroke-linejoin="round" stroke-miterlimit="10" cx="222.546" cy="128.677" rx="4.191" ry="4.191"/>
	</g>
	<g>
		
			<ellipse transform="matrix(0.8464 -0.5325 0.5325 0.8464 -5.1728 136.6449)" fill="none" stroke="#1E2326" stroke-width="2" stroke-linecap="round" stroke-linejoin="round" stroke-miterlimit="10" cx="234.296" cy="77.29" rx="4.191" ry="4.191"/>
	</g>
	<g>
		
			<ellipse transform="matrix(0.8464 -0.5325 0.5325 0.8464 -95.4535 421.6786)" fill="none" stroke="#FFFFFF" stroke-width="2" stroke-linecap="round" stroke-linejoin="round" stroke-miterlimit="10" cx="683.279" cy="376.314" rx="4.191" ry="4.191"/>
	</g>
	<g>
		
			<ellipse transform="matrix(0.8464 -0.5325 0.5325 0.8464 -153.4397 415.2251)" fill="none" stroke="#FFFFFF" stroke-width="2" stroke-linecap="round" stroke-linejoin="round" stroke-miterlimit="10" cx="643.099" cy="473.61" rx="4.191" ry="4.191"/>
	</g>
	<g>
		
			<ellipse transform="matrix(0.8464 -0.5325 0.5325 0.8464 -98.7857 53.8018)" fill="none" stroke="#1E2326" stroke-width="2" stroke-linecap="round" stroke-linejoin="round" stroke-miterlimit="10" cx="43.876" cy="198.152" rx="4.191" ry="4.191"/>
	</g>
	<g>
		
			<ellipse transform="matrix(0.8464 -0.5325 0.5325 0.8464 -165.2436 64.2315)" fill="none" stroke="#FFFFFF" stroke-width="2" stroke-linecap="round" stroke-linejoin="round" stroke-miterlimit="10" cx="28.73" cy="318.582" rx="4.191" ry="4.191"/>
	</g>
	
		<line fill="none" stroke="#FFFFFF" stroke-width="2" stroke-linecap="round" stroke-linejoin="round" stroke-miterlimit="10" x1="672.379" y1="164.116" x2="681.607" y2="164.116"/>
	
		<line fill="none" stroke="#FFFFFF" stroke-width="2" stroke-linecap="round" stroke-linejoin="round" stroke-miterlimit="10" x1="456.722" y1="145.226" x2="465.949" y2="145.226"/>
	
		<line fill="none" stroke="#FFFFFF" stroke-width="2" stroke-linecap="round" stroke-linejoin="round" stroke-miterlimit="10" x1="473.309" y1="272.065" x2="482.536" y2="272.065"/>
	
		<line fill="none" stroke="#1E2326" stroke-width="2" stroke-linecap="round" stroke-linejoin="round" stroke-miterlimit="10" x1="275.029" y1="134.873" x2="284.257" y2="134.873"/>
	
		<line fill="none" stroke="#FFFFFF" stroke-width="2" stroke-linecap="round" stroke-linejoin="round" stroke-miterlimit="10" x1="44.023" y1="325.831" x2="53.25" y2="325.831"/>
	
		<line fill="none" stroke="#FFFFFF" stroke-width="2" stroke-linecap="round" stroke-linejoin="round" stroke-miterlimit="10" x1="34.28" y1="437.877" x2="43.507" y2="437.877"/>
	
		<line fill="none" stroke="#FFFFFF" stroke-width="2" stroke-linecap="round" stroke-linejoin="round" stroke-miterlimit="10" x1="33.939" y1="157.61" x2="43.166" y2="157.61"/>
	
		<line fill="none" stroke="#FFFFFF" stroke-width="2" stroke-linecap="round" stroke-linejoin="round" stroke-miterlimit="10" x1="252.804" y1="290.121" x2="262.031" y2="290.121"/>
	
		<line fill="none" stroke="#FFFFFF" stroke-width="2" stroke-linecap="round" stroke-linejoin="round" stroke-miterlimit="10" x1="454.125" y1="329.956" x2="463.352" y2="329.956"/>
</g>
</svg>
